<svg xmlns="http://www.w3.org/2000/svg" xmlns:xlink="http://www.w3.org/1999/xlink" id="Layer_1" x="0px" y="0px" viewBox="0 0 1920 3154" style="enable-background:new 0 0 1920 3154;" xml:space="preserve"><style type="text/css">	.st0{opacity:0.5;fill:url(#SVGID_1_);enable-background:new    ;}	.st1{opacity:0.5;fill:url(#SVGID_2_);enable-background:new    ;}	.st2{opacity:0.5;fill:url(#SVGID_3_);enable-background:new    ;}</style><linearGradient id="SVGID_1_" gradientUnits="userSpaceOnUse" x1="417.586" y1="3038.1685" x2="1113.5574" y2="-453.8989" gradientTransform="matrix(-1 0 0 -1 1921.8298 3156)">	<stop offset="0" style="stop-color:#E8897E"></stop>	<stop offset="0.8626" style="stop-color:#FFFFFF"></stop></linearGradient><path class="st0" d="M2.9,2816.3v-284.2c73.2-139.3,238-93.2,238-93.2c155-141,309.5-1.5,309.5-1.5s78.3-180.8,349.7-154  c138.9,13.7,235.9,127.2,235.9,127.2s44.3-117.7,176.9-120.2c109.1-2.1,169.3,78.5,169.3,78.5s16.7-165.9,176.7-203.3  c154.5-36,232.2,54.3,232.2,54.3s1.7-35.8,28.2-89.2v1023.5H537.8H-0.1L2.9,2816.3z"></path><linearGradient id="SVGID_2_" gradientUnits="userSpaceOnUse" x1="415.336" y1="5168.4448" x2="1111.3075" y2="1676.3774" gradientTransform="matrix(1 0 0 -1 0 3156)">	<stop offset="0" style="stop-color:#E8897E"></stop>	<stop offset="0.8626" style="stop-color:#FFFFFF"></stop></linearGradient><path class="st1" d="M1916.7,686V401.8c-73.2-139.3-238-93.2-238-93.2c-155-141-309.5-1.5-309.5-1.5s-78.2-180.8-349.7-154  c-138.9,13.7-235.9,127.2-235.9,127.2s-44.2-117.7-176.9-120.2c-109.1-2.1-169.3,78.5-169.3,78.5S420.7,72.7,260.7,35.4  C106.2-0.7,28.5,89.6,28.5,89.6S26.8,53.9,0.3,0.5V1024h1381.6h537.9L1916.7,686z"></path><linearGradient id="SVGID_3_" gradientUnits="userSpaceOnUse" x1="1644.6097" y1="-657.0333" x2="830.4323" y2="1880.954">	<stop offset="0" style="stop-color:#E8897E"></stop>	<stop offset="0.9609" style="stop-color:#FFFFFF"></stop></linearGradient><path class="st2" d="M1919.5,2104.5v-818.3c-100.5-77.4-226.2,21.4-226.2,21.4s-88.6-156.9-349.1-124.9s-311.8,219.8-311.8,219.8  s-32.5-130.3-137.1-139.4c-104.6-9.1-162.3,77-162.3,77s-14.6-176.7-171.8-194c-157.1-17.4-231.1,119.7-231.1,119.7  s-0.6-223.3-236.6-365.6C61.7,881,30.2,865.6-0.7,853.3v1251.1h1920.2V2104.5z"></path><g></g><g></g><g></g><g></g><g></g><g></g><g></g><g></g><g></g><g></g><g></g><g></g><g></g><g></g><g></g></svg>