<svg xmlns="http://www.w3.org/2000/svg" xmlns:xlink="http://www.w3.org/1999/xlink" id="OBJECTS" x="0px" y="0px" viewBox="0 0 500 500" style="enable-background:new 0 0 500 500;" xml:space="preserve"><style type="text/css">	.st0{fill:#543C12;}	.st1{fill:#684921;}	.st2{fill:#996F2C;}	.st3{fill:#E28728;}	.st4{fill:#DE6D23;}	.st5{fill:#B35521;}	.st6{fill:#E4AF38;}	.st7{fill:#402C1A;}	.st8{opacity:0.8;fill:url(#SVGID_1_);}</style><g>	<g>		<g>			<g>				<path class="st0" d="M223.7,118.2c-6.8-3.5-6.8-13.7-2.9-20.2c3.9-6.6,10.4-11.2,14.9-17.4c7.9-11,8.3-25.4,9.4-38.8      c1.1-13.5,3.7-28.2,14.2-36.7c6.6-5.4,17.8,0.1,23.3,6.5c-3.7,9-7.5,18.2-9.4,27.7c-1.9,9.5-1.9,19.7,1.6,28.7      c2.8,7.1,7.6,13.1,12.2,19.1c4.6,6,9.1,12.3,11.2,19.6c2.1,7.3,1.4,15.8-3.6,21.5c-4.5,5-11.5,7-18.2,7.7      C257.5,137.9,240.6,127,223.7,118.2z"></path>				<g>					<path class="st1" d="M230.3,86.9c-3.4,3.5-7,6.9-9.5,11.1c-3.5,5.9-3.8,14.7,1.1,19c1.7-3.1,3.2-6.2,4.5-9.5       C229,100.9,230.6,93.9,230.3,86.9z"></path>					<path class="st1" d="M255.4,74.2c-1.8-12.5-5.9-25.2-3.1-37.6c2.8-12.1,11.8-22,16.6-33.4c-3.5-0.7-6.9-0.4-9.6,1.8       c-2,1.7-3.8,3.6-5.2,5.6c-5.2,9.6-7.2,21.1-8,32.2c-1.1,15.6-0.3,31.6-4.9,46.5c-2.4,7.8-6.3,15-9.2,22.6       c-1.1,2.9-2.1,6-2.8,9.1c6.1,3.3,12.3,6.6,18.7,9.4C255.4,112.9,258.1,93.2,255.4,74.2z"></path>					<path class="st1" d="M285.3,115.7c-1-9.9-2.8-19.7-2.9-29.6c0-1.7,0.1-3.3,0.2-5c-3-4.2-5.8-8.5-7.7-13.2       c-3.6-9-3.5-19.2-1.6-28.7c1.9-9.5,5.7-18.7,9.4-27.7c-1.3-1.4-2.8-2.8-4.5-4.1c-3.2,4.5-6.1,9.1-8.6,13.9       c-4.6,9-7.6,19.1-6.9,29.3c0.7,9.5,4.5,18.5,6.9,27.7c3.1,12.2,2.4,38.1,0.7,57.7c2.1,0.1,4.2,0,6.4-0.2c3-0.3,6.1-0.9,9-1.9       C286.1,127.9,285.9,121.8,285.3,115.7z"></path>				</g>				<g>					<path class="st2" d="M282.6,11.5c-5.1-5.8-14.8-10.8-21.4-7.7C255.6,11.6,281.3,14.8,282.6,11.5z"></path>				</g>				<path class="st3" d="M114.8,460.4C91.1,461.1-5,442.1,1.2,284.7C2.8,243,13.5,200.4,39.9,168c26.4-32.4,68.3-53.2,109.8-48.9      c16.5-9.9,36.5-15.2,55.7-13.7c19.2,1.5,37.9,9.2,52.6,21.6c11.6-10.8,27.1-17.6,42.9-18c15.8-0.4,39.5,8,51.7,18.1      c39.6-11.7,149.2-5,147.4,178.1c-1.2,116.5-84.9,206.1-158.7,172.8c-31.8,22.4-86.5,25.2-121.1,7.3      C185.6,499.8,137.2,491.4,114.8,460.4z"></path>				<path class="st4" d="M349,481.1l21.4-27.6c-0.6,0.4-1.3,0.7-1.9,1c-51,27.6-112.6-11.5-109.7-69.4c0.5-10.8,1.2-22.2,2.1-34.1      c6.8-87.7,14.2-153.5-4.4-155c-18.6-1.5-12,60.5-18.2,135.7c-3.7,45.1-13.4,115.2-13.4,115.2c1.3,28.8,6.2,40.2,13.2,45.4      c31,8.8,70,5.3,96.8-10.2c0,0,0.1,0,0.1-0.1c2.1-1.2,4.2-2.5,6.2-3.9c1.9,0.9,3.8,1.6,5.7,2.3      C347.7,480.6,348.4,480.9,349,481.1z"></path>				<path class="st4" d="M172.3,290.8c-8.4,91.6,16.5,179.5-23.6,176.2c-40.1-3.3-86.4-106-80-184.7c6.4-78.7,56.7-138.7,96.8-135.5      C205.5,150.1,179.5,212.2,172.3,290.8z"></path>				<path class="st4" d="M372.9,309.5c-5.1,68.6-26.6,118.7-4.9,120.5c21.7,1.8,56.2-57.1,61-115.9c4.8-58.8-15.7-108.5-37.4-110.2      C369.9,202.1,377.3,250.7,372.9,309.5z"></path>				<path class="st4" d="M500,305.3c1-103.2-33.3-150.3-70.5-169.7c19.1,13.8,31.4,31.4,24.8,43.9c-7.5,14-32.9-4.7-62.5-18.5      c-0.4-0.2-0.9-0.4-1.3-0.6c18.3,24.4,36.1,64.5,34.7,128.1c-3.3,148.7-83.8,189.6-83.8,189.6C415.1,511.4,498.8,421.8,500,305.3      z"></path>				<path class="st4" d="M72.2,276.9c5.7-69.1,28.3-109.8,47.7-132.5c-24.9,7.2-38.5,15.4-48.7,3.8c-1.7-2-2.6-4.2-2.7-6.6      C57.8,149,48.1,157.9,39.9,168c-26.4,32.4-37,75-38.7,116.7C-5,442.1,91.1,461.1,114.8,460.4C114.8,460.4,61.9,403.1,72.2,276.9      z"></path>				<path class="st5" d="M149.7,119.1c-5.1-0.5-10.2-0.7-15.3-0.5c-10.3,11.2-23.1,28.1-31.3,49.7      C103.1,168.3,128.8,130.8,149.7,119.1z"></path>				<path class="st5" d="M91.5,420.7c0,15.7,5,29.4,9.6,38.6c5.6,1,10.3,1.3,13.6,1.2C106.4,449.2,91.5,420.7,91.5,420.7z"></path>				<g>					<path class="st5" d="M257.2,163.3c-0.1,0.9-0.1,1.4-0.1,1.4C257.2,164.2,257.1,163.8,257.2,163.3z"></path>					<path class="st5" d="M283.2,112.2c-9.3,3-18,8.2-25.2,14.8c-5.8-4.9-12.2-9-18.9-12.3c0.7,0.7,16.6,18.3,18.1,48.6       C260.6,148.1,266.9,128.2,283.2,112.2z"></path>				</g>				<path class="st5" d="M398.8,172.8c0,0,0.1,0.1,0.1,0.1c0,0-6.8-28.2-26.9-49.1c-7.4,0.5-14,1.8-19.3,3.3      C352.6,127.2,378,138.4,398.8,172.8z"></path>				<path class="st5" d="M381.1,440.3c-20.2,27.8-39.8,37.8-39.8,37.8c4.7,2.1,9.4,3.7,14.2,4.9      C372.5,461.1,381.2,440.2,381.1,440.3L381.1,440.3z"></path>				<path class="st5" d="M224.9,447c-5,31.6-22.5,43.1-23.1,43.7c6.4-1.1,12.6-2.9,18.4-5.3c8.4,4.4,18.1,7.5,28.3,9.4      C223.6,484.9,224.9,447,224.9,447z"></path>				<path class="st6" d="M361.2,151.7c-2.9,8.8-17.9-2.2-38.6-9.1c-20.7-6.9-39.3-7.1-36.4-15.8c2.9-8.8,22.1-10.3,42.8-3.4      C349.7,130.2,364.1,142.9,361.2,151.7z"></path>				<path class="st6" d="M236.8,139.5c-2.9,8.8-13.5-0.7-28.7-5.8c-15.2-5.1-29.4-3.8-26.5-12.5c2.9-8.8,17.6-11.8,32.9-6.7      C229.7,119.6,239.7,130.8,236.8,139.5z"></path>			</g>			<g id="XMLID_853_">				<path id="XMLID_856_" class="st7" d="M243.3,306.3c0,0,51.5,44.4-2,41.8C187.7,345.6,243.3,306.3,243.3,306.3z"></path>				<path id="XMLID_854_" class="st5" d="M241.8,336.7c12.6,0.6,19.4-1.4,22.4-4.8c3.9,9.3,0.8,17.4-22.9,16.2      c-23.7-1.1-26-9.4-21.3-18.4C222.6,333.4,229.2,336.1,241.8,336.7z"></path>			</g>			<g id="XMLID_844_">				<g id="XMLID_849_">					<path id="XMLID_852_" class="st7" d="M327.4,258.8c18.9-14.9,34-31.8,44.4-48.7c0.6,0.7,1.2,1.3,1.7,1.9       c22.3,28.3,17.5,69.3-10.8,91.6c-28.3,22.3-69.3,17.5-91.6-10.8c-0.5-0.7-1-1.4-1.5-2.1C288.5,284.5,308.5,273.7,327.4,258.8z"></path>					<path id="XMLID_850_" class="st5" d="M349.6,294.6c24.3-19.2,31.2-52.1,18.6-78.9c1.3-1.9,2.5-3.7,3.7-5.6       c0.6,0.7,1.2,1.3,1.7,1.9c22.3,28.3,17.5,69.3-10.8,91.6c-25.1,19.8-60.3,18.2-83.5-2.3C301.2,312.7,328.8,311,349.6,294.6z"></path>				</g>				<g id="XMLID_845_">					<path id="XMLID_848_" class="st7" d="M164.1,251c-17.4-16.6-30.8-34.9-39.6-52.8c-0.6,0.6-1.3,1.1-1.9,1.8       c-24.9,26-24,67.3,2,92.2c26,24.9,67.3,24,92.2-2c0.6-0.6,1.1-1.3,1.7-2C200.3,280.3,181.4,267.7,164.1,251z"></path>					<path id="XMLID_846_" class="st5" d="M138.5,284.5c-22.3-21.4-26.1-54.8-11-80.4c-1.1-2-2.1-3.9-3.1-5.9       c-0.6,0.6-1.3,1.1-1.9,1.8c-24.9,26-24,67.3,2,92.2c23.1,22.1,58.3,23.8,83.3,5.6C184.9,307.1,157.6,302.8,138.5,284.5z"></path>				</g>			</g>			<g>				<path id="XMLID_842_" class="st7" d="M61.9,276.3c0,0,12.1,29.2,49.9,55l-1.9,48l28.3-32.9c25.6,12.1,58.9,21.5,102,23.6      c43.1,2.1,77.2-4.1,103.8-13.8l25,35.5l2.7-48c40.1-22.1,54.9-50,54.9-50c4.8,160.7-189.9,148.3-189.9,148.3      S41.8,435.9,61.9,276.3z"></path>				<path id="XMLID_243_" class="st5" d="M237.5,426.5c0,0,176.3,11.3,189.2-126.2c-0.7,153.8-190,141.7-190,141.7      S47.2,436,61.2,282.9C60.9,420.9,237.5,426.5,237.5,426.5z"></path>			</g>		</g>	</g>	<linearGradient id="SVGID_1_" gradientUnits="userSpaceOnUse" x1="279.0861" y1="24.3319" x2="232.6161" y2="469.4656">		<stop offset="0" style="stop-color:#D2897E"></stop>		<stop offset="0.2592" style="stop-color:#E2B4AD"></stop>		<stop offset="0.5414" style="stop-color:#F2DCD9"></stop>		<stop offset="0.7606" style="stop-color:#FBF6F5"></stop>		<stop offset="0.8883" style="stop-color:#FFFFFF"></stop>	</linearGradient>	<path class="st8" d="M500,305.3c0.1-5.3,0-10.4-0.1-15.3c0-0.7,0-1.3,0-2c-0.1-4.7-0.4-9.2-0.7-13.7c-0.1-0.8-0.1-1.6-0.2-2.4   c-0.3-4.4-0.7-8.6-1.2-12.7c-0.1-0.7-0.2-1.4-0.2-2c-0.5-4.2-1.1-8.3-1.7-12.2c-0.1-0.3-0.1-0.6-0.2-1c-0.7-3.9-1.4-7.7-2.2-11.4   c-0.1-0.3-0.1-0.7-0.2-1c-0.8-3.7-1.7-7.2-2.6-10.6c-0.2-0.6-0.3-1.1-0.5-1.7c-0.9-3.3-1.9-6.5-2.9-9.6c-0.2-0.6-0.4-1.1-0.6-1.7   c-1.1-3.1-2.2-6.1-3.3-8.9c-0.2-0.4-0.3-0.8-0.5-1.1c-1.2-2.9-2.5-5.8-3.8-8.5c0-0.1-0.1-0.1-0.1-0.2c-1.3-2.7-2.7-5.3-4.1-7.9   c-0.2-0.4-0.4-0.8-0.6-1.1c-1.4-2.4-2.8-4.7-4.2-6.9c-0.3-0.4-0.5-0.8-0.8-1.2c-1.4-2.1-2.9-4.2-4.4-6.2c-0.3-0.3-0.5-0.7-0.8-1   c-1.6-2-3.2-3.9-4.8-5.8c-0.1-0.2-0.3-0.3-0.4-0.4c-1.6-1.8-3.2-3.5-4.9-5.1c-0.2-0.2-0.4-0.4-0.6-0.6c-1.7-1.6-3.4-3.1-5.1-4.6   c-0.3-0.3-0.6-0.6-1-0.8c-1.7-1.4-3.4-2.7-5.1-3.9c-0.4-0.3-0.7-0.5-1.1-0.8c-1.7-1.2-3.5-2.4-5.2-3.5c-0.3-0.2-0.6-0.3-0.8-0.5   c-1.7-1.1-3.5-2.1-5.3-3c-0.1-0.1-0.3-0.2-0.4-0.2c0,0,0,0-0.1,0c0,0,0,0,0,0c-20-10.4-40.8-12.9-57.5-11.7c0,0,0,0,0,0   c-0.2,0-0.4,0-0.5,0.1c-1.3,0.1-2.5,0.2-3.8,0.4c-0.5,0.1-1,0.1-1.5,0.2c-1.2,0.2-2.4,0.3-3.6,0.5c-0.4,0.1-0.9,0.1-1.3,0.2   c-1.2,0.2-2.3,0.5-3.4,0.7c-0.4,0.1-0.7,0.1-1.1,0.2c-1.4,0.3-2.8,0.7-4.1,1.1C340.4,117,316.8,108.6,301,109   c-0.7,0-1.4,0.1-2.1,0.2c-0.2-0.8-0.3-1.7-0.6-2.5c-2.1-7.3-6.6-13.6-11.2-19.6c-2.2-2.9-4.5-5.8-6.5-8.9c-0.2-0.3-0.3-0.5-0.5-0.8   c-0.8-1.2-1.5-2.4-2.3-3.7c-0.2-0.4-0.5-0.8-0.7-1.2c-0.8-1.5-1.5-3-2.2-4.6c-3.6-9-3.5-19.2-1.6-28.7c1.9-9.5,5.7-18.7,9.4-27.7   c-0.7-0.8-1.4-1.5-2.2-2.2c-0.3-0.3-0.6-0.5-0.9-0.7c-0.5-0.4-1.1-0.9-1.7-1.3c-0.4-0.3-0.8-0.5-1.3-0.8c-0.5-0.3-1-0.6-1.6-0.9   c-0.5-0.3-1-0.5-1.5-0.7c-0.5-0.2-1-0.4-1.5-0.6c-0.6-0.2-1.1-0.4-1.7-0.5c-0.5-0.1-0.9-0.3-1.4-0.3c0,0-0.1,0-0.1,0c0,0,0,0,0,0   c-0.1,0-0.2,0-0.3,0c-0.5-0.1-0.9-0.1-1.3-0.2c-0.2,0-0.5-0.1-0.7-0.1c-0.3,0-0.6,0-0.9,0c-0.4,0-0.8,0-1.2,0.1   c-0.6,0.1-1.2,0.2-1.7,0.4c-0.3,0.1-0.6,0.2-0.9,0.3c-0.2,0.1-0.3,0.1-0.5,0.2c0,0,0,0,0,0c0,0,0,0,0,0c-0.7,0.3-1.3,0.7-1.9,1.2   c-1.2,1-2.2,2-3.2,3.1c-0.3,0.4-0.7,0.8-1,1.2c-0.3,0.4-0.7,0.8-1,1.3c-0.1,0.1-0.1,0.3-0.2,0.4c-6,8.6-7.9,20-8.7,30.7   c-1.1,13.5-1.5,27.9-9.4,38.8c-2.1,3-4.8,5.6-7.4,8.3c-1.3,1.3-2.5,2.6-3.7,4c-0.3,0.3-0.5,0.6-0.7,0.9c-1.1,1.3-2.2,2.7-3.1,4.2   c-0.5,0.8-0.9,1.6-1.2,2.5c-0.1,0.3-0.2,0.6-0.3,0.9c-0.2,0.6-0.4,1.1-0.5,1.7c-0.1,0.4-0.2,0.8-0.2,1.2c-0.1,0.5-0.2,1-0.2,1.5   c0,0.4-0.1,0.9-0.1,1.3c0,0.1,0,0.1,0,0.2c-4.2-0.9-8.5-1.6-12.8-2c-19.2-1.5-39.2,3.8-55.7,13.7c-2.6-0.3-5.1-0.4-7.7-0.5   c-2.4-0.1-4.9-0.1-7.3,0c-0.1,0-0.2,0-0.3,0l0,0c-26.4,1.1-52.1,11.7-73.1,28.3c-0.7,0.5-1.3,1.1-2,1.7c-1.7,1.4-3.3,2.8-4.9,4.2   c-0.7,0.7-1.5,1.4-2.2,2c-1.5,1.5-3.1,3-4.5,4.5c-0.6,0.7-1.3,1.3-1.9,2c-2,2.2-4,4.4-5.9,6.7c-21.4,26.3-32.5,59.4-36.8,93.2   c-1,7.8-1.6,15.7-1.9,23.5c-5.3,135.5,65.2,168.4,100,174.5v0c0,0,0,0,0,0c2.8,0.5,5.4,0.8,7.7,1c0,0,0,0,0,0c1.1,0.1,2,0.1,3,0.2   c0.1,0,0.2,0,0.3,0c1,0,1.9,0,2.7,0c20.4,28.2,62.3,37.6,95.7,28.3c0.4-0.1,0.8-0.2,1.3-0.3c2.9-0.9,5.7-1.8,8.5-2.9   c2.1,1.1,4.3,2.1,6.6,3.1c1.9,0.8,4,1.5,6,2.2c0.3,0.1,0.6,0.2,0.9,0.3c1.5,0.5,3,0.9,4.5,1.3c0,0,0,0,0,0c0,0,0,0,0,0   c7.7,2.2,15.9,3.6,24.4,4.3c0,0,0.1,0,0.1,0c2,0.2,3.9,0.3,5.9,0.3c0.4,0,0.7,0,1.1,0c5.6,0.2,11.3,0,16.9-0.5   c0.7-0.1,1.3-0.1,2-0.2c1.4-0.1,2.8-0.3,4.2-0.5c1.1-0.1,2.1-0.3,3.2-0.5c1.3-0.2,2.5-0.4,3.8-0.6c1.3-0.2,2.6-0.5,3.9-0.8   c1-0.2,2.1-0.4,3.1-0.7c2.2-0.5,4.4-1.1,6.6-1.8c0.8-0.2,1.5-0.5,2.3-0.8c1.5-0.5,3-1,4.5-1.6c0.8-0.3,1.7-0.6,2.5-1   c1.5-0.6,2.9-1.2,4.3-1.9c0.7-0.3,1.4-0.6,2.1-1c2-1,4-2,6-3.1c2.2-1.3,4.3-2.6,6.3-4c1.9,0.9,3.8,1.6,5.7,2.3c0,0,0,0,0,0   c0.5,0.2,0.9,0.4,1.4,0.5c0,0,0.1,0,0.1,0c2.3,0.8,4.7,1.5,7,2.1c0,0,0,0,0,0l0,0c25.6,6.2,51.7-1.3,74.5-18.7   c4.2-3.2,8.2-6.7,12.1-10.5c7.8-7.6,15.2-16.4,21.8-26.3C485.4,395.5,499.5,352.6,500,305.3L500,305.3L500,305.3z"></path></g></svg>