<svg xmlns="http://www.w3.org/2000/svg" xmlns:xlink="http://www.w3.org/1999/xlink" id="Layer_1" x="0px" y="0px" viewBox="0 0 15 96" style="enable-background:new 0 0 15 96;" xml:space="preserve"><style type="text/css">	.st0{fill:#A59CB7;}</style><path class="st0" d="M13.2,85.5c-0.7-0.2-1.5,0-1.9,0.2c-0.1,0-0.1,0.1-0.2,0.1c-0.1-0.7-0.2-1.3-0.5-1.8l1.3-0.6  c0.2-0.1,0.6-0.3,0.9-0.4c0.3,0.3,0.6,0.6,0.7,0.7c0,0.3,0.3,0.4,0.5,0.4c0.3,0,0.4-0.3,0.4-0.5c0-0.4-0.5-0.9-1.3-1.5  c-0.2-0.1-0.4-0.1-0.5,0c0,0-0.8,0.4-1.1,0.6l-1.4,0.6c-0.7-0.9-1.6-1.5-2.6-1.6c0-13.7,0-72.9,0-81.2c0-0.1-0.4,0-0.4,0.1  c0,8.3,0,67.1,0,81.1c-0.9,0-1.8,0.5-2.5,1.2c-0.6-0.3-1.2-0.4-1.8-0.6c-0.2-0.1-0.5-0.1-0.7-0.2c-0.2,0-0.3,0-0.5,0.1  c-0.2,0.2-0.5,0.5-0.7,0.8c-0.2,0.3-0.5,0.6-0.7,0.8C0,83.7,0,84,0.2,84.2c0.1,0.1,0.2,0.1,0.3,0.1c0.1,0,0.2,0,0.3-0.1  c0.2-0.2,0.5-0.5,0.7-0.8C1.8,83.2,2,83,2.1,82.9c0.2,0,0.3,0.1,0.5,0.1c0.5,0.1,1,0.2,1.4,0.4c-0.4,0.6-0.7,1.4-0.8,2.2  c-0.1,0-0.2,0-0.3,0c-1.1,0.1-2,0.8-2.8,1.6c-0.2,0.2-0.2,0.5,0,0.7C0.1,88,0.3,88,0.4,88c0.1,0,0.2,0,0.3-0.1  c0.7-0.7,1.4-1.3,2.2-1.3c0,0,0.1,0,0.1,0c0,0,0.1,0,0.1,0c0,0.7,0.1,1.3,0.3,1.9C2.7,88.8,2,89.3,1.5,90c-0.2,0.2-0.1,0.5,0.1,0.7  c0.1,0.1,0.2,0.1,0.3,0.1c0.1,0,0.3-0.1,0.4-0.2c0.4-0.6,1-1,1.7-1.3c0.5,0.8,1.2,1.5,1.9,1.8c-0.7,0.5-1.1,1.2-1.1,2.1  c0,1.4,1.1,2.5,2.5,2.5c1.4,0,2.5-1.1,2.5-2.5c0-0.9-0.5-1.7-1.2-2.1c0.7-0.4,1.4-1,1.8-1.8c0.4-0.4,1-0.6,1.5-0.5  c0.6,0.1,1.1,0.5,1.3,1c0.1,0.2,0.3,0.3,0.4,0.3c0.1,0,0.1,0,0.2,0c0.2-0.1,0.3-0.4,0.2-0.6c-0.4-0.8-1.1-1.4-2-1.5  c-0.4-0.1-0.8,0-1.2,0.1c0.1-0.4,0.1-0.7,0.2-1.1c0,0,0,0,0,0c0.2-0.1,0.3-0.1,0.5-0.2c0.6-0.2,1-0.3,1.4-0.2  c0.3,0.1,0.7,0.4,0.7,0.7c0,0.3,0.2,0.5,0.5,0.5c0,0,0,0,0,0c0.3,0,0.5-0.2,0.5-0.5C14.6,86.3,13.9,85.7,13.2,85.5z"></path><g></g><g></g><g></g><g></g><g></g><g></g><g></g><g></g><g></g><g></g><g></g><g></g><g></g><g></g><g></g></svg>