<svg xmlns="http://www.w3.org/2000/svg" xmlns:xlink="http://www.w3.org/1999/xlink" id="Layer_1" x="0px" y="0px" viewBox="0 0 115 113" style="enable-background:new 0 0 115 113;" xml:space="preserve"><style type="text/css">	.st0{fill:#5B1B07;}	.st1{fill:#3F1206;}	.st2{fill:url(#SVGID_1_);}	.st3{fill:url(#SVGID_2_);}	.st4{fill:#FF9810;}	.st5{fill:#DD691B;}	.st6{opacity:0.48;}	.st7{fill:#AA5A24;}	.st8{fill:#FFE461;}	.st9{fill:#FFE876;}	.st10{fill:#FCE03D;}</style><g>	<g>		<path class="st0" d="M96.9,59.1c1.4-2.8-0.8-5.2-3.1-5c-0.8-2.9-6.3-4.8-9.8-2.4l-10.8-2.9L62.7,51c-4.6-1.4-10.1-0.3-14.7,3.1    c-1.8-0.9-4.8,1.1-6.5,3.9c2.3,1.2-0.9,17.9-1.5,20c4.1-0.3,15.4,15.3,18.7,18.8c5.5-1.2,13,0.8,18.6-1.5    c3.4-1.9,14.4-2.9,18.5-2.7C97,90.5,103,73.1,96.9,59.1z"></path>	</g>	<g>		<g>			<path class="st1" d="M84.3,53.5c1.3,1.7,2.1,3.9,2.6,5.9c0.8,2.8,1.3,5.7,1.6,8.6c0.6,6.3,0.6,12.8-0.6,19     c-0.5,2.7-1.3,5.4-2.8,7.7c-0.1,0.2,0.2,0.5,0.4,0.3c1.5-1.9,2.4-4.3,3-6.6c0.8-3,1.1-6.2,1.3-9.3c0.3-6.4-0.1-13-1.9-19.2     c-0.7-2.4-1.5-4.9-3.3-6.7C84.4,53,84.1,53.3,84.3,53.5L84.3,53.5z"></path>		</g>	</g>	<g>		<g>			<path class="st1" d="M93.1,54.7c0.5,1.2,1.1,2.4,1.7,3.6c0.7,1.5,1.3,3.1,1.8,4.6c1.1,3.2,1.9,6.5,2.6,9.8c0.3,1.7,0.5,3.3,0.6,5     c0,0.3,0.4,0.3,0.4,0c0.1-1.5,0-3-0.2-4.5c-0.2-1.7-0.5-3.3-0.9-5c-0.8-3.3-1.9-6.6-3.3-9.7c-0.6-1.4-1.3-3-2.4-4.1     C93.3,54.5,93,54.6,93.1,54.7L93.1,54.7z"></path>		</g>	</g>	<g>		<g>			<path class="st1" d="M62.5,53.8c-0.8,1.9-1.2,4-1.5,6c-0.4,2.7-0.6,5.4-0.7,8.2c-0.2,6.3,0.1,12.7,1.4,18.8     c0.6,3.1,1.4,6.4,3,9.2c0.1,0.3,0.6,0.1,0.5-0.2c-1-2.6-1.9-5.3-2.5-8.1c-0.7-3-1.1-6.1-1.4-9.2c-0.5-5.9-0.5-11.8,0.2-17.7     c0.3-2.3,0.6-4.7,1.4-7C63,53.6,62.6,53.5,62.5,53.8L62.5,53.8z"></path>		</g>	</g>	<g>		<g>			<path class="st1" d="M48.8,53.8c-1.9,2.9-3.3,6.1-4.1,9.5c-0.8,3.3-1.2,6.9-0.5,10.2c0.1,0.3,0.6,0.3,0.6-0.1     c0-1.6-0.1-3.3,0-4.9c0.1-1.7,0.3-3.4,0.7-5.1c0.8-3.3,2-6.4,3.8-9.3C49.4,53.8,49,53.6,48.8,53.8L48.8,53.8z"></path>		</g>	</g>	<radialGradient id="SVGID_1_" cx="57.5515" cy="56.3487" r="56.3487" gradientUnits="userSpaceOnUse">		<stop offset="0" style="stop-color:#FFD300"></stop>		<stop offset="9.090842e-02" style="stop-color:#CEAA00;stop-opacity:0.8716"></stop>		<stop offset="0.2172" style="stop-color:#907700;stop-opacity:0.6932"></stop>		<stop offset="0.3386" style="stop-color:#5D4D00;stop-opacity:0.5219"></stop>		<stop offset="0.4515" style="stop-color:#342B00;stop-opacity:0.3624"></stop>		<stop offset="0.5541" style="stop-color:#181400;stop-opacity:0.2175"></stop>		<stop offset="0.643" style="stop-color:#060500;stop-opacity:9.197176e-02"></stop>		<stop offset="0.7081" style="stop-color:#000000;stop-opacity:0"></stop>	</radialGradient>	<circle class="st2" cx="57.6" cy="56.3" r="56.3"></circle>	<radialGradient id="SVGID_2_" cx="69.8319" cy="73.4805" r="38.8417" gradientUnits="userSpaceOnUse">		<stop offset="0" style="stop-color:#FFD300"></stop>		<stop offset="9.090842e-02" style="stop-color:#CEAA00;stop-opacity:0.8716"></stop>		<stop offset="0.2172" style="stop-color:#907700;stop-opacity:0.6932"></stop>		<stop offset="0.3386" style="stop-color:#5D4D00;stop-opacity:0.5219"></stop>		<stop offset="0.4515" style="stop-color:#342B00;stop-opacity:0.3624"></stop>		<stop offset="0.5541" style="stop-color:#181400;stop-opacity:0.2175"></stop>		<stop offset="0.643" style="stop-color:#060500;stop-opacity:9.197176e-02"></stop>		<stop offset="0.7081" style="stop-color:#000000;stop-opacity:0"></stop>	</radialGradient>	<circle class="st3" cx="69.8" cy="73.5" r="38.8"></circle>	<g>		<g>			<g>				<path class="st4" d="M35,82.9c1.1,4.9,3.5,9.7,7.4,13c1.8,1.5,5.1,4,7.2,3.2c4.5,2.3,6.9,0.9,9.5,0.3c4.1,3.3,10.3,3.3,14.8,0.5      c2.9,1.6,8.9,2,12.4-1.6c6.7,1.6,12.7-4.3,15.2-7.5c3.1-3.9,4.8-11,4.5-15.9c-0.4-5.6-1.2-8.9-3.5-14      c-2.4-5.1-6.9-11.7-20.1-10.6c-11-4.1-18.9-0.2-18.9-0.2c-5.2-1.5-15.9,0.9-19,4.5c0,0-0.1,0-0.1,0c0.6-0.1,1.2-0.1,1.9,0.1      c5.3-3.9,13-4.3,17.8-2.9c2.6-1.6,12.3-2.3,18.3,0c2.2-0.7,10.1-0.5,11.3,2.6c3.8-0.2,5.4,3.1,4.1,6.7c-3,0.9-5.1,2.8-6.5,5.2      c-4.5-0.2-9.1,0.8-12.9,3c-5.7-2-15.2-1.1-21.2,0.3c-3.6-4.2-11.3-3.2-15.8-2.9c0.7-2.5,0.1-5.8-2.4-7.2c0.4-1,1-2.2,1.9-3.1      C37.7,58.9,36,63,35,67.1C34,71.2,33.8,78,35,82.9z M82.2,80.2c-0.3,0.1-0.5-0.2-0.3-0.5c1.7-2.6,5.5-8,12.2-9.1      c0.1,0,0.3,0.1,0.4,0.2c0.6,1.4,2.4,4.7,3.2,6.3c0.1,0.2-0.1,0.5-0.3,0.5C92.6,77.6,86.8,79.2,82.2,80.2z M55.8,85.3      c0-0.1,0.2-0.2,0.3-0.1c0.9,1.1,3.9,4.4,6.3,6.2c1-2.3,2.3-5.6,3.1-5.7c0.8-0.1,4.3,4.6,4.7,4.6c0.4-0.1,4.1-4.8,4.8-5.1      c0.7-0.3,4.8,4.7,5.3,4.6c1.3-0.4,4.3-5.9,5-5.9c0.7-0.1,1.5,2,2,3.4c1.5-1.3,3.6-3.9,4.3-4.2c0.8-0.3-1.8,7.9-5.6,11.2      c-0.5-1.1-0.8-2.7-1.3-3.7c-1,1.9-3.8,5.7-5.1,5.7c-1.3,0.1-3.8-5-4.5-5.2c-0.7-0.1-3.6,5.6-4.7,5.6c-1.1,0.1-4.7-6.7-5.6-7      c-0.5-0.1-1.7,4.7-2.3,6.6C58.3,93.2,56.4,90.5,55.8,85.3z M46.4,79.9c0.6-1.8,1.9-5.4,3.6-6.4c0.1,0,0.1-0.1,0.2-0.1      c6.8,0.3,10.4,5,12.2,7.4c0.2,0.2,0,0.6-0.3,0.5c-4.8-0.5-10.6-1.6-15.3-1C46.5,80.3,46.3,80.1,46.4,79.9z"></path>			</g>		</g>		<g>			<g>				<g>					<path class="st5" d="M98.1,60.9c1.1,1.7,2.1,3.4,2.8,5.4c0.6,1.7,0.9,3.5,1,5.3c0.3,4.6-0.4,9.1-1.9,13.5       c-0.9,2.6-2.1,5.1-3.2,7.6c-0.1,0.2,0.2,0.4,0.3,0.2c2.5-4.2,4.3-9.1,5-13.9c0.3-2.3,0.4-4.6,0.3-6.8c-0.1-1.8-0.4-3.6-0.9-5.4       c-0.7-2.1-1.9-4.1-3.1-5.9C98.2,60.6,98,60.7,98.1,60.9L98.1,60.9z"></path>				</g>			</g>			<g>				<g>					<path class="st5" d="M40.5,67.5c-1.6,4.2-1.8,8.9-1.3,13.4c0.5,4.6,1.8,9.3,4.5,13.1c1.3,1.8,3.1,3.3,5.1,4.1       c0.2,0.1,0.4-0.3,0.2-0.4c-3.9-1.9-6.2-5.5-7.6-9.5c-1.6-4.4-2.1-9.1-1.9-13.7c0.1-2.3,0.5-4.7,1.2-6.9       C40.8,67.4,40.6,67.4,40.5,67.5L40.5,67.5z"></path>				</g>			</g>			<g>				<g>					<path class="st5" d="M91.3,66.9c0,0.5,0.1,1.1,0.1,1.6c0,0.3,0,0.5,0.1,0.8c0,0.3,0,0.5,0.1,0.8c0,0.1,0.2,0.1,0.2,0       c0-0.3,0-0.5,0-0.8c0-0.3-0.1-0.6-0.1-0.8c-0.1-0.5-0.1-1.1-0.2-1.6C91.5,66.7,91.3,66.7,91.3,66.9L91.3,66.9z"></path>				</g>			</g>			<g>				<g>					<path class="st5" d="M92.9,78.2c-0.1,3.1-0.4,6.2-1.2,9.2c-0.8,3-2,5.9-3.3,8.7c-0.1,0.1,0.1,0.3,0.2,0.1       c1.7-2.6,2.9-5.6,3.7-8.7c0.8-3,1.2-6.2,0.9-9.4C93.1,78,92.9,78,92.9,78.2L92.9,78.2z"></path>				</g>			</g>			<g>				<g>					<path class="st5" d="M78.1,69.8c0,1.3,0.1,2.6,0.1,3.9c0,1.2-0.1,2.3-0.1,3.4c0,0.1,0.2,0.2,0.2,0c0.4-2.4,0.2-4.9,0-7.4       C78.3,69.7,78.1,69.7,78.1,69.8L78.1,69.8z"></path>				</g>			</g>			<g>				<g>					<path class="st5" d="M78.1,78.3c0,0.1,0,0.2,0,0.2c0,0.1,0,0.1,0,0.2c0,0.1,0,0.2,0,0.2c0,0.1,0,0.2,0.1,0.2       c0,0.1,0.2,0.1,0.2,0c0,0,0-0.1,0-0.1c0,0,0-0.1,0-0.1c0-0.1,0-0.1,0-0.2c0-0.1,0-0.1,0-0.2c0,0,0-0.1,0-0.1c0,0,0-0.1,0-0.1       c0,0,0,0,0-0.1c0,0-0.1-0.1-0.1-0.1C78.1,78.2,78.1,78.3,78.1,78.3L78.1,78.3z"></path>				</g>			</g>			<g>				<g>					<path class="st5" d="M77.9,81.3c-0.1,0.7-0.1,1.5-0.2,2.2c-0.1,0.7-0.2,1.5-0.1,2.2c0,0.1,0.2,0.2,0.3,0       c0.2-0.7,0.1-1.5,0.2-2.2c0-0.8,0.1-1.5,0.1-2.3C78.2,81.1,77.9,81.1,77.9,81.3L77.9,81.3z"></path>				</g>			</g>			<g>				<g>					<path class="st5" d="M76,93.4c-0.1,0.8-0.4,1.7-0.7,2.5c-0.2,0.4-0.3,0.8-0.5,1.2c-0.1,0.2-0.2,0.4-0.3,0.6       c-0.1,0.2-0.2,0.4-0.3,0.6c0,0.2,0.1,0.4,0.3,0.2c0.3-0.2,0.5-0.7,0.7-1.1c0.2-0.4,0.4-0.8,0.5-1.3c0.3-0.9,0.4-1.7,0.5-2.6       C76.3,93.3,76,93.2,76,93.4L76,93.4z"></path>				</g>			</g>			<g>				<g>					<path class="st5" d="M56.7,70.5c-0.3,1.1-0.5,2.4-0.2,3.5c0,0.1,0.2,0.1,0.2,0c0-0.6,0-1.1,0-1.7c0-0.6,0.1-1.2,0.1-1.7       C56.9,70.4,56.7,70.4,56.7,70.5L56.7,70.5z"></path>				</g>			</g>			<g>				<g>					<path class="st5" d="M55.7,81c0,0.3,0,0.7,0,1c0,0.2,0,0.3,0,0.5c0,0.1,0,0.2,0,0.2c0,0.1,0,0.2,0,0.3c0,0.1,0.2,0.1,0.2,0       c0-0.1,0-0.2,0-0.3c0-0.1,0-0.2,0-0.3c0-0.2,0-0.3,0-0.5c0-0.3,0-0.7-0.1-1C55.9,80.9,55.7,80.9,55.7,81L55.7,81z"></path>				</g>			</g>			<g>				<g>					<path class="st5" d="M56.2,89.2c0.2,1.7,0.5,3.3,0.9,4.9c0.4,1.5,0.8,3.1,1.5,4.6c0.1,0.2,0.3,0,0.3-0.1       c-0.4-1.6-0.9-3.1-1.3-4.7c-0.4-1.6-0.8-3.2-1.1-4.8C56.5,88.9,56.2,89,56.2,89.2L56.2,89.2z"></path>				</g>			</g>		</g>		<g class="st6">			<path class="st7" d="M35,67.1c1-4.1,2.7-8.3,5.8-10.8c-0.9,0.9-1.5,2.1-1.9,3.1c2.5,1.4,3.1,4.8,2.4,7.2c3.9-0.3,10.2-1,14.2,1.5     c-11.7-3.2-13.8,2-14.5,5.5c-0.6,3.1-0.5,9.1,0.5,13.1c1.2,4.9,5.3,9.2,9.5,10.8c1.6,0.6,3.4,1,4.9,0.3c1.3-0.6,2.2-2.2,1.9-3.5     c1.5,3.1,4.5,5.5,8,6.2c3.7,0.7,7.6-0.6,10.2-3.4c0.1,1,1,1.8,2,2c1,0.3,2,0.1,3-0.2c4-1,8.1-4.9,9.7-7.1c-0.1,0.6-0.5,1.4-0.6,2     c-0.1,0.6,0.2,1.4,0.8,1.6c0.5,0.1,1-0.1,1.4-0.3c3.1-1.7,5.7-4.5,7.1-7.7c-0.4,0.8,0.3,1.9,1.1,2.2c0.6,0.2,1.1,0.1,1.7,0     c-0.1,0.2-0.2,0.3-0.3,0.5c-0.1,0.2-0.3,0.4-0.4,0.6c-2.5,3.2-8.6,9.1-15.2,7.5c-3.5,3.6-9.5,3.3-12.4,1.6     c-4.6,2.8-10.7,2.8-14.8-0.5c-2.7,0.6-5,2-9.5-0.3c-2.1,0.8-5.4-1.7-7.2-3.2c-3.8-3.3-6.2-8.1-7.4-13C33.8,78,34,71.2,35,67.1z"></path>		</g>	</g>	<path class="st8" d="M81.8,79.7c0-0.1,0.1-0.1,0.1-0.2c0.1,0.1,0.1,0.2,0.2,0.2c4.7-1,9.9-2.8,14.6-2.7c0.1,0,0.3-0.3,0.3-0.7   c0.2,0.4,0.3,0.7,0.5,1c0.1,0.2-0.1,0.5-0.3,0.5c-4.7-0.1-10.4,1.5-15.1,2.6C81.9,80.3,81.7,80,81.8,79.7z M55.9,86.1   c0.7,4.7,2.7,7.3,6.7,10.2c0.5-2,1.8-6.8,2.3-6.6c0.9,0.3,4.5,7.1,5.6,7c1.1-0.1,4-5.7,4.7-5.6c0.7,0.1,3.1,5.2,4.5,5.2   c1.3-0.1,4.2-3.9,5.1-5.7c0.5,1.1,0.8,2.7,1.3,3.7c3.2-2.8,5.5-8.9,5.7-10.7c-0.8,2.4-3,7.2-5.8,9.6c-0.5-1.1-0.8-2.7-1.3-3.7   c-1,1.9-3.8,5.7-5.1,5.7c-1.3,0.1-3.8-5-4.5-5.2c-0.7-0.1-3.6,5.6-4.7,5.6c-1.1,0.1-4.7-6.7-5.6-7c-0.5-0.1-1.7,4.7-2.3,6.6   C58.9,92.5,56.8,90,55.9,86.1z M46.7,80.3c4.7-0.6,10.6,0.4,15.3,1c0.3,0,0.5-0.3,0.3-0.5c0,0-0.1-0.1-0.1-0.2   c-0.1,0.1-0.1,0.2-0.2,0.2c-4.6-1.1-9.6-2.1-14.3-1.5c-0.2,0-0.4-0.2-0.4-0.4c0.3-1,0.9-2.8,1.4-4.3c-1.1,1.5-2,3.9-2.4,5.3   C46.3,80.1,46.5,80.3,46.7,80.3z"></path>	<g>		<g>			<path class="st9" d="M41.3,66.7c4.5-0.3,12.2-1.3,15.8,2.9c6-1.4,15.5-2.3,21.2-0.3c3.7-2.2,8.4-3.3,12.9-3     c1.4-2.5,3.5-4.3,6.5-5.2c1.3-3.6-0.4-6.9-4.1-6.7c-1.2-3.2-6.7-4.8-11-3c-2.6-2-15.2-3.6-19.7-0.5c-3.4-1.2-12.5-0.8-16.7,3.9     c-4-0.8-6.3,2.4-7.2,4.8C41.4,60.9,42,64.2,41.3,66.7z M40.4,59.2c1.7-2.8,4.6-4.8,6.5-3.9c4.6-3.5,11.9-4,14.9-2.4     c8.3-4.4,20.3,1,20.3,1c3.5-2.4,9.6-1.5,10.5,1.4c2.3-0.2,4.5,2.3,3.1,5c-2.7,0.8-5.1,2.5-6.3,4.6c-4.1-0.2-8.3,0.7-11.7,2.6     c-5.2-1.7-13.8-0.8-19.3,0.4c-3.3-3.5-11.2-3.2-15.3-2.9C43.7,62.7,42.7,60.3,40.4,59.2z"></path>		</g>	</g>	<g>		<g>			<g>				<path class="st10" d="M98.7,64.5c-0.2,0.4-0.2,0.7-0.1,1.1c0,0.4,0.1,0.7,0.2,1.1c0.1,0.8,0.2,1.2,0.3,2c0,0.2,0.1,0.3,0.1,0.5      c0-0.3,0,0.2,0,0.3c0,0.3,0,0.6,0.1,1c0,0.7,0,1.4,0,2.1c0,0.7,0.6,1.4,1.3,1.5c0.7,0.1,1.5-0.3,1.6-1.1c0.2-1.6,0-3.3-0.3-4.8      c-0.2-0.8-0.5-1.5-0.8-2.2c-0.2-0.3-0.4-0.7-0.6-0.9c-0.3-0.4-0.5-0.7-1-0.8C99.1,64.1,98.8,64.2,98.7,64.5L98.7,64.5z"></path>			</g>		</g>		<g>			<g>				<path class="st10" d="M97,62c0,0-0.1,0.3-0.1,0.3c0,0,0,0,0,0c0,0,0,0,0,0c0,0,0,0,0,0.1c0,0,0,0,0,0.1c0,0,0,0,0,0      c0,0.1,0,0.2,0,0.3c0,0.1,0,0.2,0,0.3c0,0,0,0,0,0c0,0,0,0,0,0c0.1,0.2,0.2,0.4,0.3,0.6c0.2,0.2,0.4,0.3,0.6,0.3      c0.1,0,0.2,0,0.3,0c0.2,0,0.5-0.1,0.7-0.2c0.2-0.1,0.3-0.2,0.4-0.3c0.1-0.1,0.2-0.3,0.2-0.4c0.1-0.2,0.1-0.5,0-0.7      c-0.1-0.2-0.2-0.4-0.3-0.6c0,0,0,0,0,0c0,0-0.1-0.1-0.1-0.1c-0.1-0.1-0.3-0.2-0.4-0.2c0,0,0,0,0,0c0,0,0,0-0.1,0c0,0,0,0,0,0      c0,0,0,0,0,0c0,0,0,0,0,0c0,0-0.3,0-0.3,0c-0.2,0-0.4,0.1-0.6,0.2C97.2,61.7,97.1,61.8,97,62L97,62z"></path>			</g>		</g>		<g>			<g>				<path class="st10" d="M98.1,85.7c-0.2,0.3-0.4,0.6-0.6,0.8c0.1-0.1,0.1-0.1,0.2-0.2c-0.2,0.2-0.3,0.4-0.5,0.6      c-0.3,0.3-0.5,0.7-0.8,1c0.1-0.1,0.1-0.2,0.2-0.3c0,0,0,0.1-0.1,0.1c-0.2,0.2-0.3,0.4-0.4,0.6c0,0.1,0,0.2,0,0.4      c0,0.4,0.2,0.8,0.5,1.1c0.3,0.2,0.6,0.3,1,0.3c0.4-0.1,0.8-0.3,1-0.7c0.1-0.2,0.2-0.4,0.3-0.6c0.1-0.3,0.2-0.5,0.3-0.8      c0.1-0.3,0.1-0.6,0.2-0.9c0.1-0.4,0.1-0.7,0.2-1.1c0-0.3-0.3-0.7-0.6-0.8C98.6,85.3,98.3,85.4,98.1,85.7L98.1,85.7z"></path>			</g>		</g>	</g></g><g></g><g></g><g></g><g></g><g></g><g></g><g></g><g></g><g></g><g></g><g></g><g></g><g></g><g></g><g></g></svg>