<svg xmlns="http://www.w3.org/2000/svg" xmlns:xlink="http://www.w3.org/1999/xlink" width="1914.3" height="1006.7" viewBox="0 0 1914.3 1006.7"><defs><clipPath id="clip-path"><rect width="1914.3" height="1006.7" fill="none"></rect></clipPath><clipPath id="clip-path-2"><path id="Path_9" data-name="Path 9" d="M1918,1077.7V533.5C1769.1,413.6,1633.5,548,1633.5,548S1553,383.6,1302.2,420.3c-128.3,18.8-213.4,128.5-213.4,128.5S1042.6,441.5,919.3,445c-101.3,2.8-153.7,80.3-153.7,80.3S742.8,372,592.7,344.4c-145-26.7-213.1,60.5-213.1,60.5S365.3,252.8,132.3,124.2A592.918,592.918,0,0,0,3.7,71V1077.7Z"></path></clipPath><radialGradient id="radial-gradient" cx="0.486" cy="0.282" r="0.72" gradientTransform="translate(0.167) scale(0.667 1)" gradientUnits="objectBoundingBox"><stop offset="0" stop-color="#f89580"></stop><stop offset="1" stop-color="#6e396e"></stop></radialGradient></defs><g id="Repeat_Grid_1" data-name="Repeat Grid 1" clip-path="url(#clip-path)"><g transform="translate(-2174.8 -1488)"><g id="Component_1_1" data-name="Component 1 &#x2013; 1" transform="translate(2174.8 1488)"><g id="Group_5" data-name="Group 5" transform="translate(-3.7 -71)" clip-path="url(#clip-path-2)"><rect id="Rectangle_3" data-name="Rectangle 3" width="2143.6" height="1429.1" transform="translate(-157.9 -140.2)" fill="url(#radial-gradient)"></rect></g><g id="Group_6" data-name="Group 6" transform="translate(0.3 -73)" opacity="0.22"><path id="Path_2" data-name="Path 2" d="M0,1079.2H665.1a594.922,594.922,0,0,0,6.4-87c0-326.9-264.6-591.9-591-591.9A608.408,608.408,0,0,0,.2,405.7c.1,4.6,0,9.3-.1,14v659.5Z" fill="#fff" opacity="0.1"></path><path id="Path_3" data-name="Path 3" d="M546.3,1079.2a479.621,479.621,0,0,0,8-87c0-262.1-212.1-474.6-473.8-474.6A483.717,483.717,0,0,0,.1,524.4v554.8Z" fill="#fff" opacity="0.1"></path><path id="Path_4" data-name="Path 4" d="M412.1,1079.2a342.35,342.35,0,0,0,11.1-87c0-189.6-153.5-343.4-342.8-343.4A343.6,343.6,0,0,0,0,658.3v420.9Z" fill="#fff" opacity="0.1"></path><g id="Group_3" data-name="Group 3"><path id="Path_5" data-name="Path 5" d="M308.9,1079.2a243.848,243.848,0,0,0,15.9-87c0-135.2-109.4-244.8-244.3-244.8-5,0-10,.2-15,.5A234.477,234.477,0,0,0,38.8,751,240.283,240.283,0,0,0,0,761.1v318.2H308.9Z" fill="#ffeac5"></path><path id="Path_6" data-name="Path 6" d="M80.4,802.1c6.8,18.6-12.2,20.2-2,39.2,10.3,18.9,23.7-.3,32,13.1,8.3,13.5-9.3,15.7-11.8,28.9-2.6,13.2,23.1,24.4,15.4,59s11.5,22.2,51.9,28,39.4,20.2,40.4,47.2c.7,19.4-16.9,39.7-5.6,61.8H308.8a243.848,243.848,0,0,0,15.9-87c0-135.2-109.4-244.7-244.4-244.7A243.188,243.188,0,0,0-.1,761.2V865.7c9.9-19.5,13.7-43.8,15.6-58C19.5,779,73.6,783.5,80.4,802.1Z" opacity="0.3"></path><path id="Path_7" data-name="Path 7" d="M94.7,762.5c7.5,18.6-13.4,20.2-2.2,39.2,11.2,18.9,26-.3,35.1,13.2s-10.2,15.7-13,28.9,25.2,24.4,16.8,59,12.6,22.2,56.8,28S231.3,951,232.4,978s-36.8,55.9,26.3,88.6a67.945,67.945,0,0,1,17.8,12.7h32.3a243.848,243.848,0,0,0,15.9-87c0-135.2-109.4-244.8-244.3-244.8-5,0-10,.2-15,.5C79.1,749.3,91.6,754.6,94.7,762.5Z" opacity="0.3"></path><path id="Path_8" data-name="Path 8" d="M0,761.1v75.1c15.8-20.4,21.3-51.4,23.8-68.2,1.2-8.3,7.1-13.8,15-17A237.615,237.615,0,0,0,0,761.1Z" opacity="0.3"></path></g></g></g></g></g></svg>