<svg xmlns="http://www.w3.org/2000/svg" width="133" height="36" viewBox="0 0 133 36" fill="none"><path d="M34.8039 13V4.73169H39.627V5.75375H35.8259V8.35482H38.938V9.37687H35.8259V13H34.8039ZM43.1309 13.1723C42.5146 13.1723 41.9826 13.0325 41.5347 12.7531C41.0907 12.4737 40.7481 12.087 40.5069 11.5932C40.2657 11.0994 40.1452 10.5329 40.1452 9.89364C40.1452 9.2429 40.2677 8.67254 40.5126 8.18256C40.7576 7.69259 41.1041 7.31171 41.5519 7.03993C41.9998 6.76432 42.5261 6.62651 43.1309 6.62651C43.7511 6.62651 44.2851 6.76623 44.7329 7.04567C45.1808 7.32128 45.5234 7.70599 45.7607 8.19979C46.0019 8.68976 46.1225 9.25438 46.1225 9.89364C46.1225 10.5406 46.0019 11.1109 45.7607 11.6047C45.5196 12.0947 45.175 12.4794 44.7272 12.7588C44.2793 13.0345 43.7472 13.1723 43.1309 13.1723ZM43.1309 12.2019C43.774 12.2019 44.2525 11.9875 44.5664 11.5588C44.8803 11.1301 45.0372 10.575 45.0372 9.89364C45.0372 9.19313 44.8784 8.63617 44.5607 8.22276C44.2429 7.80551 43.7664 7.59689 43.1309 7.59689C42.6984 7.59689 42.3424 7.6945 42.0629 7.88973C41.7835 8.08495 41.5749 8.35482 41.4371 8.69933C41.2993 9.04384 41.2304 9.44195 41.2304 9.89364C41.2304 10.5903 41.3911 11.1492 41.7127 11.5703C42.0342 11.9913 42.507 12.2019 43.1309 12.2019ZM47.5015 13V4.55944H48.5235V13H47.5015ZM50.3612 13V4.55944H51.3833V13H50.3612ZM55.7474 13.1723C55.1311 13.1723 54.599 13.0325 54.1511 12.7531C53.7071 12.4737 53.3645 12.087 53.1233 11.5932C52.8822 11.0994 52.7616 10.5329 52.7616 9.89364C52.7616 9.2429 52.8841 8.67254 53.1291 8.18256C53.3741 7.69259 53.7205 7.31171 54.1684 7.03993C54.6162 6.76432 55.1426 6.62651 55.7474 6.62651C56.3675 6.62651 56.9015 6.76623 57.3494 7.04567C57.7972 7.32128 58.1398 7.70599 58.3772 8.19979C58.6183 8.68976 58.7389 9.25438 58.7389 9.89364C58.7389 10.5406 58.6183 11.1109 58.3772 11.6047C58.136 12.0947 57.7915 12.4794 57.3436 12.7588C56.8957 13.0345 56.3637 13.1723 55.7474 13.1723ZM55.7474 12.2019C56.3905 12.2019 56.869 11.9875 57.1828 11.5588C57.4967 11.1301 57.6537 10.575 57.6537 9.89364C57.6537 9.19313 57.4948 8.63617 57.1771 8.22276C56.8594 7.80551 56.3828 7.59689 55.7474 7.59689C55.3148 7.59689 54.9588 7.6945 54.6794 7.88973C54.3999 8.08495 54.1913 8.35482 54.0535 8.69933C53.9157 9.04384 53.8468 9.44195 53.8468 9.89364C53.8468 10.5903 54.0076 11.1492 54.3291 11.5703C54.6507 11.9913 55.1234 12.2019 55.7474 12.2019ZM61.0994 13L59.2046 6.79303L60.2209 6.79877L61.6047 11.3349L63 6.79877H63.9015L65.291 11.3349L66.6805 6.79877H67.6911L65.7963 13H64.9465L63.4479 8.28592L61.9492 13H61.0994ZM73.6683 13.1723C73.052 13.1723 72.5199 13.0325 72.0721 12.7531C71.628 12.4737 71.2854 12.087 71.0443 11.5932C70.8031 11.0994 70.6825 10.5329 70.6825 9.89364C70.6825 9.2429 70.805 8.67254 71.05 8.18256C71.295 7.69259 71.6414 7.31171 72.0893 7.03993C72.5372 6.76432 73.0635 6.62651 73.6683 6.62651C74.2884 6.62651 74.8224 6.76623 75.2703 7.04567C75.7182 7.32128 76.0608 7.70599 76.2981 8.19979C76.5393 8.68976 76.6598 9.25438 76.6598 9.89364C76.6598 10.5406 76.5393 11.1109 76.2981 11.6047C76.0569 12.0947 75.7124 12.4794 75.2646 12.7588C74.8167 13.0345 74.2846 13.1723 73.6683 13.1723ZM73.6683 12.2019C74.3114 12.2019 74.7899 11.9875 75.1038 11.5588C75.4177 11.1301 75.5746 10.575 75.5746 9.89364C75.5746 9.19313 75.4158 8.63617 75.098 8.22276C74.7803 7.80551 74.3038 7.59689 73.6683 7.59689C73.2358 7.59689 72.8798 7.6945 72.6003 7.88973C72.3209 8.08495 72.1123 8.35482 71.9745 8.69933C71.8367 9.04384 71.7678 9.44195 71.7678 9.89364C71.7678 10.5903 71.9285 11.1492 72.2501 11.5703C72.5716 11.9913 73.0444 12.2019 73.6683 12.2019ZM82.3395 13V9.89364C82.3395 9.59889 82.3127 9.31563 82.2592 9.04384C82.2094 8.77206 82.1194 8.52899 81.9893 8.31463C81.863 8.09643 81.6907 7.92418 81.4725 7.79786C81.2582 7.67153 80.9864 7.60837 80.6572 7.60837C80.4007 7.60837 80.1672 7.65239 79.9567 7.74044C79.75 7.82465 79.572 7.9548 79.4227 8.13089C79.2734 8.30697 79.1566 8.52899 79.0724 8.79694C78.992 9.06107 78.9518 9.37305 78.9518 9.73287L78.28 9.52616C78.28 8.92518 78.3872 8.41032 78.6016 7.9816C78.8198 7.54904 79.1241 7.21793 79.5145 6.98825C79.9088 6.75475 80.372 6.638 80.9041 6.638C81.306 6.638 81.6486 6.70116 81.9319 6.82748C82.2151 6.9538 82.4506 7.12223 82.6381 7.33276C82.8257 7.53947 82.9731 7.77297 83.0802 8.03327C83.1874 8.28974 83.2621 8.55196 83.3042 8.81991C83.3501 9.08404 83.3731 9.33477 83.3731 9.5721V13H82.3395ZM77.9183 13V6.79877H78.837V8.45817H78.9518V13H77.9183ZM87.2797 13V4.73169H88.3018V12.0296H92.1373V13H87.2797ZM93.2235 5.70207V4.64556H94.2455V5.70207H93.2235ZM93.2235 13V6.79877H94.2455V13H93.2235ZM100.384 13V9.89364C100.384 9.59889 100.357 9.31563 100.303 9.04384C100.254 8.77206 100.164 8.52899 100.034 8.31463C99.9073 8.09643 99.735 7.92418 99.5168 7.79786C99.3025 7.67153 99.0307 7.60837 98.7015 7.60837C98.445 7.60837 98.2115 7.65239 98.001 7.74044C97.7943 7.82465 97.6163 7.9548 97.467 8.13089C97.3177 8.30697 97.2009 8.52899 97.1167 8.79694C97.0363 9.06107 96.9961 9.37305 96.9961 9.73287L96.3243 9.52616C96.3243 8.92518 96.4315 8.41032 96.6459 7.9816C96.8641 7.54904 97.1684 7.21793 97.5588 6.98825C97.9531 6.75475 98.4163 6.638 98.9484 6.638C99.3503 6.638 99.6929 6.70116 99.9762 6.82748C100.259 6.9538 100.495 7.12223 100.682 7.33276C100.87 7.53947 101.017 7.77297 101.125 8.03327C101.232 8.28974 101.306 8.55196 101.348 8.81991C101.394 9.08404 101.417 9.33477 101.417 9.5721V13H100.384ZM95.9626 13V6.79877H96.8813V8.45817H96.9961V13H95.9626ZM105.289 13.1723C104.711 13.1723 104.215 13.0287 103.802 12.7416C103.388 12.4507 103.068 12.0583 102.843 11.5645C102.621 11.0707 102.51 10.5138 102.51 9.89364C102.51 9.27352 102.621 8.71656 102.843 8.22276C103.068 7.72895 103.388 7.34042 103.802 7.05715C104.215 6.77006 104.709 6.62651 105.283 6.62651C105.869 6.62651 106.36 6.76815 106.759 7.05141C107.157 7.33468 107.457 7.72321 107.66 8.21701C107.867 8.71081 107.97 9.26969 107.97 9.89364C107.97 10.5099 107.867 11.0669 107.66 11.5645C107.457 12.0583 107.157 12.4507 106.759 12.7416C106.36 13.0287 105.871 13.1723 105.289 13.1723ZM105.415 12.2363C105.832 12.2363 106.175 12.1368 106.443 11.9378C106.711 11.7349 106.908 11.4573 107.034 11.1052C107.164 10.7492 107.229 10.3453 107.229 9.89364C107.229 9.43429 107.164 9.03045 107.034 8.68211C106.908 8.32994 106.713 8.05624 106.449 7.86102C106.184 7.66196 105.849 7.56244 105.444 7.56244C105.023 7.56244 104.674 7.66579 104.399 7.8725C104.127 8.07921 103.924 8.35865 103.79 8.71082C103.66 9.06298 103.595 9.45726 103.595 9.89364C103.595 10.3339 103.662 10.732 103.796 11.088C103.93 11.4401 104.131 11.7196 104.399 11.9263C104.67 12.133 105.009 12.2363 105.415 12.2363ZM107.229 13V8.4352H107.115V4.73169H108.142V13H107.229ZM112.438 13.1723C111.83 13.1723 111.298 13.0383 110.842 12.7703C110.39 12.4985 110.038 12.1215 109.786 11.6392C109.533 11.153 109.407 10.5865 109.407 9.93958C109.407 9.26204 109.531 8.67636 109.78 8.18256C110.029 7.68493 110.375 7.30214 110.819 7.03419C111.267 6.7624 111.791 6.62651 112.392 6.62651C113.016 6.62651 113.546 6.77006 113.983 7.05715C114.423 7.34425 114.752 7.75384 114.97 8.28592C115.192 8.818 115.288 9.45152 115.258 10.1865H114.224V9.819C114.213 9.05724 114.058 8.4888 113.759 8.11366C113.46 7.7347 113.016 7.54521 112.427 7.54521C111.795 7.54521 111.315 7.74809 110.986 8.15385C110.656 8.55961 110.492 9.14146 110.492 9.89938C110.492 10.6305 110.656 11.197 110.986 11.599C111.315 12.0009 111.784 12.2019 112.392 12.2019C112.802 12.2019 113.158 12.1081 113.46 11.9205C113.763 11.733 114 11.4631 114.172 11.1109L115.154 11.4497C114.913 11.9971 114.549 12.422 114.063 12.7244C113.581 13.023 113.039 13.1723 112.438 13.1723ZM110.147 10.1865V9.36539H114.729V10.1865H110.147ZM118.97 13.1723C118.392 13.1723 117.897 13.0287 117.483 12.7416C117.07 12.4507 116.75 12.0583 116.524 11.5645C116.302 11.0707 116.191 10.5138 116.191 9.89364C116.191 9.27352 116.302 8.71656 116.524 8.22276C116.75 7.72895 117.07 7.34042 117.483 7.05715C117.897 6.77006 118.391 6.62651 118.965 6.62651C119.55 6.62651 120.042 6.76815 120.44 7.05141C120.839 7.33468 121.139 7.72321 121.342 8.21701C121.549 8.71081 121.652 9.26969 121.652 9.89364C121.652 10.5099 121.549 11.0669 121.342 11.5645C121.139 12.0583 120.839 12.4507 120.44 12.7416C120.042 13.0287 119.552 13.1723 118.97 13.1723ZM119.097 12.2363C119.514 12.2363 119.857 12.1368 120.125 11.9378C120.393 11.7349 120.59 11.4573 120.716 11.1052C120.846 10.7492 120.911 10.3453 120.911 9.89364C120.911 9.43429 120.846 9.03045 120.716 8.68211C120.59 8.32994 120.394 8.05624 120.13 7.86102C119.866 7.66196 119.531 7.56244 119.126 7.56244C118.704 7.56244 118.356 7.66579 118.081 7.8725C117.809 8.07921 117.606 8.35865 117.472 8.71082C117.342 9.06298 117.277 9.45726 117.277 9.89364C117.277 10.3339 117.344 10.732 117.478 11.088C117.612 11.4401 117.813 11.7196 118.081 11.9263C118.352 12.133 118.691 12.2363 119.097 12.2363ZM120.911 13V8.4352H120.796V4.73169H121.824V13H120.911ZM123.548 13V4.73169H124.57V13H123.548ZM130.708 13V9.89364C130.708 9.59889 130.681 9.31563 130.628 9.04384C130.578 8.77206 130.488 8.52899 130.358 8.31463C130.232 8.09643 130.059 7.92418 129.841 7.79786C129.627 7.67153 129.355 7.60837 129.026 7.60837C128.769 7.60837 128.536 7.65239 128.325 7.74044C128.119 7.82465 127.941 7.9548 127.791 8.13089C127.642 8.30697 127.525 8.52899 127.441 8.79694C127.361 9.06107 127.32 9.37305 127.32 9.73287L126.649 9.52616C126.649 8.92518 126.756 8.41032 126.97 7.9816C127.188 7.54904 127.493 7.21793 127.883 6.98825C128.277 6.75475 128.741 6.638 129.273 6.638C129.675 6.638 130.017 6.70116 130.3 6.82748C130.584 6.9538 130.819 7.12223 131.007 7.33276C131.194 7.53947 131.342 7.77297 131.449 8.03327C131.556 8.28974 131.631 8.55196 131.673 8.81991C131.719 9.08404 131.742 9.33477 131.742 9.5721V13H130.708ZM126.287 13V6.79877H127.206V8.45817H127.32V13H126.287Z" fill="#848484"></path><path d="M36.6518 30.1723C36.07 30.1723 35.58 30.0287 35.1819 29.7416C34.7838 29.4507 34.4814 29.0583 34.2747 28.5645C34.0718 28.0669 33.9704 27.5099 33.9704 26.8936C33.9704 26.2697 34.0718 25.7108 34.2747 25.217C34.4814 24.7232 34.7838 24.3347 35.1819 24.0514C35.5838 23.7681 36.0757 23.6265 36.6576 23.6265C37.2318 23.6265 37.7256 23.7701 38.139 24.0572C38.5562 24.3404 38.8759 24.729 39.0979 25.2228C39.3199 25.7166 39.4309 26.2735 39.4309 26.8936C39.4309 27.5138 39.3199 28.0707 39.0979 28.5645C38.8759 29.0583 38.5562 29.4507 38.139 29.7416C37.7256 30.0287 37.2299 30.1723 36.6518 30.1723ZM33.7981 30V21.7317H34.8259V25.4352H34.7111V30H33.7981ZM36.5255 29.2363C36.9351 29.2363 37.2739 29.133 37.5418 28.9263C37.8098 28.7196 38.0107 28.4401 38.1447 28.088C38.2787 27.732 38.3457 27.3339 38.3457 26.8936C38.3457 26.4573 38.2787 26.063 38.1447 25.7108C38.0146 25.3586 37.8117 25.0792 37.5361 24.8725C37.2643 24.6658 36.9179 24.5624 36.4968 24.5624C36.0949 24.5624 35.7618 24.662 35.4977 24.861C35.2336 25.0562 35.0365 25.3299 34.9063 25.6821C34.7762 26.0304 34.7111 26.4343 34.7111 26.8936C34.7111 27.3453 34.7742 27.7492 34.9006 28.1052C35.0307 28.4573 35.2298 28.7349 35.4977 28.9378C35.7657 29.1368 36.1083 29.2363 36.5255 29.2363ZM45.1051 30V26.8936C45.1051 26.5989 45.0783 26.3156 45.0248 26.0438C44.975 25.7721 44.885 25.529 44.7549 25.3146C44.6286 25.0964 44.4563 24.9242 44.2381 24.7979C44.0238 24.6715 43.752 24.6084 43.4228 24.6084C43.1663 24.6084 42.9328 24.6524 42.7223 24.7404C42.5156 24.8247 42.3376 24.9548 42.1883 25.1309C42.039 25.307 41.9222 25.529 41.838 25.7969C41.7576 26.0611 41.7174 26.373 41.7174 26.7329L41.0456 26.5262C41.0456 25.9252 41.1528 25.4103 41.3672 24.9816C41.5854 24.549 41.8897 24.2179 42.2801 23.9883C42.6744 23.7547 43.1376 23.638 43.6697 23.638C44.0716 23.638 44.4142 23.7012 44.6975 23.8275C44.9807 23.9538 45.2162 24.1222 45.4037 24.3328C45.5913 24.5395 45.7387 24.773 45.8458 25.0333C45.953 25.2897 46.0277 25.552 46.0698 25.8199C46.1157 26.084 46.1387 26.3348 46.1387 26.5721V30H45.1051ZM40.6839 30V23.7988H41.6026V25.4582H41.7174V30H40.6839ZM49.9742 30.1665C49.2354 30.1665 48.6287 30.0057 48.154 29.6842C47.6832 29.3588 47.3941 28.9052 47.287 28.3234L48.332 28.1569C48.4162 28.4937 48.6095 28.7617 48.9119 28.9607C49.2143 29.1559 49.5895 29.2536 50.0373 29.2536C50.4622 29.2536 50.7953 29.1655 51.0364 28.9894C51.2776 28.8133 51.3982 28.5741 51.3982 28.2717C51.3982 28.0956 51.358 27.954 51.2776 27.8468C51.1972 27.7358 51.0307 27.6324 50.778 27.5367C50.5292 27.441 50.1522 27.3262 49.6469 27.1922C49.0995 27.0468 48.6688 26.8956 48.355 26.7386C48.0411 26.5817 47.8171 26.3998 47.6832 26.1931C47.5492 25.9864 47.4822 25.7357 47.4822 25.4409C47.4822 25.0773 47.5817 24.7596 47.7808 24.4878C47.9798 24.2122 48.2573 23.9997 48.6133 23.8504C48.9732 23.7012 49.3904 23.6265 49.8651 23.6265C50.3359 23.6265 50.757 23.7012 51.1283 23.8504C51.4996 23.9997 51.7982 24.2122 52.024 24.4878C52.2537 24.7596 52.3896 25.0773 52.4317 25.4409L51.3867 25.6304C51.3369 25.2974 51.1761 25.0352 50.9043 24.8438C50.6364 24.6524 50.29 24.551 49.8651 24.5395C49.4631 24.5242 49.1358 24.595 48.8832 24.7519C48.6344 24.9089 48.51 25.1213 48.51 25.3893C48.51 25.5386 48.5559 25.6668 48.6478 25.774C48.7435 25.8812 48.9177 25.9826 49.1703 26.0783C49.4268 26.174 49.7981 26.2831 50.2842 26.4056C50.8316 26.5434 51.2623 26.6946 51.5761 26.8592C51.8939 27.02 52.1197 27.2114 52.2537 27.4334C52.3877 27.6516 52.4547 27.9214 52.4547 28.243C52.4547 28.8401 52.2346 29.311 51.7943 29.6555C51.3541 29.9962 50.7474 30.1665 49.9742 30.1665ZM53.6062 26.8018V25.9577H57.0513V26.8018H53.6062ZM60.2199 30L57.9691 23.7988H59.0026L60.7424 28.6966L62.4765 23.7988H63.5158L61.2649 30H60.2199ZM64.6692 22.7021V21.6456H65.6912V22.7021H64.6692ZM64.6692 30V23.7988H65.6912V30H64.6692ZM70.1013 30.1723C69.4926 30.1723 68.9605 30.0383 68.505 29.7703C68.0533 29.4985 67.7011 29.1215 67.4485 28.6392C67.1959 28.153 67.0695 27.5865 67.0695 26.9396C67.0695 26.262 67.1939 25.6764 67.4428 25.1826C67.6916 24.6849 68.038 24.3021 68.482 24.0342C68.9299 23.7624 69.4543 23.6265 70.0553 23.6265C70.6793 23.6265 71.2094 23.7701 71.6458 24.0572C72.086 24.3442 72.4152 24.7538 72.6334 25.2859C72.8554 25.818 72.9511 26.4515 72.9205 27.1865H71.887V26.819C71.8755 26.0572 71.7205 25.4888 71.4219 25.1137C71.1233 24.7347 70.6793 24.5452 70.0898 24.5452C69.4582 24.5452 68.9778 24.7481 68.6486 25.1539C68.3194 25.5596 68.1548 26.1415 68.1548 26.8994C68.1548 27.6305 68.3194 28.197 68.6486 28.599C68.9778 29.0009 69.4467 29.2019 70.0553 29.2019C70.4649 29.2019 70.8209 29.1081 71.1233 28.9205C71.4257 28.733 71.663 28.4631 71.8353 28.1109L72.8172 28.4497C72.576 28.9971 72.2123 29.422 71.7262 29.7244C71.2439 30.023 70.7022 30.1723 70.1013 30.1723ZM67.8102 27.1865V26.3654H72.3923V27.1865H67.8102ZM77.6612 30C77.2938 30.0727 76.9301 30.1014 76.5703 30.0861C76.2143 30.0746 75.8966 30.0038 75.6171 29.8737C75.3377 29.7397 75.1252 29.533 74.9798 29.2536C74.8573 29.0086 74.7903 28.7617 74.7788 28.5129C74.7712 28.2602 74.7673 27.975 74.7673 27.6573V22.0762H75.7894V27.6114C75.7894 27.864 75.7913 28.0803 75.7951 28.2602C75.8028 28.4401 75.843 28.5952 75.9157 28.7253C76.0535 28.9703 76.2717 29.1138 76.5703 29.1559C76.8727 29.1981 77.2363 29.1866 77.6612 29.1215V30ZM73.5099 24.6428V23.7988H77.6612V24.6428H73.5099ZM83.3357 30V26.8936C83.3357 26.5989 83.3089 26.3156 83.2554 26.0438C83.2056 25.7721 83.1156 25.529 82.9855 25.3146C82.8592 25.0964 82.6869 24.9242 82.4687 24.7979C82.2544 24.6715 81.9826 24.6084 81.6534 24.6084C81.3969 24.6084 81.1634 24.6524 80.9529 24.7404C80.7462 24.8247 80.5682 24.9548 80.4189 25.1309C80.2696 25.307 80.1528 25.529 80.0686 25.7969C79.9882 26.0611 79.948 26.373 79.948 26.7329L79.2762 26.5262C79.2762 25.9252 79.3834 25.4103 79.5978 24.9816C79.816 24.549 80.1203 24.2179 80.5107 23.9883C80.905 23.7547 81.3682 23.638 81.9003 23.638C82.3022 23.638 82.6448 23.7012 82.9281 23.8275C83.2113 23.9538 83.4468 24.1222 83.6343 24.3328C83.8219 24.5395 83.9693 24.773 84.0764 25.0333C84.1836 25.2897 84.2583 25.552 84.3004 25.8199C84.3463 26.084 84.3693 26.3348 84.3693 26.5721V30H83.3357ZM78.9145 30V23.7988H79.8332V25.4582H79.948V30H78.9145ZM87.6248 30.1723C87.1617 30.1723 86.7731 30.088 86.4592 29.9196C86.1492 29.7474 85.9138 29.5215 85.753 29.2421C85.596 28.9626 85.5176 28.6564 85.5176 28.3234C85.5176 27.998 85.5788 27.7166 85.7013 27.4793C85.8276 27.2382 86.0037 27.0391 86.2296 26.8822C86.4554 26.7214 86.7253 26.5951 87.0392 26.5032C87.3339 26.4228 87.6631 26.3539 88.0268 26.2965C88.3943 26.2352 88.7656 26.1797 89.1407 26.13C89.5158 26.0802 89.8661 26.0324 90.1915 25.9864L89.824 26.1989C89.8355 25.6477 89.7245 25.24 89.491 24.9759C89.2613 24.7117 88.8632 24.5797 88.2966 24.5797C87.9215 24.5797 87.5923 24.6658 87.309 24.838C87.0296 25.0065 86.8325 25.2821 86.7176 25.6649L85.7472 25.372C85.8965 24.8285 86.1855 24.4017 86.6143 24.0916C87.043 23.7815 87.6076 23.6265 88.3081 23.6265C88.8708 23.6265 89.3531 23.728 89.7551 23.9308C90.1608 24.1299 90.4518 24.4323 90.6278 24.838C90.7159 25.0294 90.7714 25.2381 90.7944 25.4639C90.8173 25.6859 90.8288 25.9194 90.8288 26.1644V30H89.9216V28.5129L90.134 28.6507C89.9005 29.1521 89.5733 29.5311 89.1522 29.7876C88.7349 30.044 88.2258 30.1723 87.6248 30.1723ZM87.7799 29.3167C88.1474 29.3167 88.4651 29.2516 88.733 29.1215C89.0048 28.9875 89.223 28.8133 89.3876 28.599C89.5522 28.3808 89.6594 28.1435 89.7091 27.887C89.7666 27.6956 89.7972 27.4831 89.801 27.2496C89.8087 27.0123 89.8125 26.8305 89.8125 26.7042L90.1685 26.8592C89.8355 26.9051 89.5082 26.9491 89.1866 26.9913C88.8651 27.0334 88.5608 27.0793 88.2737 27.1291C87.9866 27.175 87.7282 27.2305 87.4985 27.2956C87.3301 27.3492 87.1712 27.4181 87.0219 27.5023C86.8765 27.5865 86.7578 27.6956 86.6659 27.8296C86.5779 27.9597 86.5339 28.1224 86.5339 28.3176C86.5339 28.4861 86.576 28.6468 86.6602 28.7999C86.7482 28.9531 86.8822 29.0775 87.0621 29.1732C87.2459 29.2689 87.4851 29.3167 87.7799 29.3167ZM99.7345 30L99.7402 26.0324C99.7402 25.5692 99.6158 25.2074 99.367 24.9471C99.122 24.683 98.8024 24.551 98.4081 24.551C98.1784 24.551 97.9602 24.6045 97.7535 24.7117C97.5468 24.8151 97.3784 24.9797 97.2482 25.2055C97.1181 25.4275 97.053 25.7127 97.053 26.0611L96.5133 25.8429C96.5056 25.4027 96.5956 25.018 96.7831 24.6888C96.9745 24.3557 97.2348 24.0973 97.564 23.9136C97.8932 23.7299 98.2645 23.638 98.678 23.638C99.3249 23.638 99.834 23.8351 100.205 24.2294C100.577 24.6199 100.762 25.1462 100.762 25.8084L100.757 30H99.7345ZM92.316 30V23.7988H93.2289V25.4582H93.3438V30H92.316ZM96.031 30L96.0367 26.0726C96.0367 25.5979 95.9142 25.2266 95.6692 24.9586C95.4242 24.6868 95.0989 24.551 94.6931 24.551C94.2912 24.551 93.9658 24.6888 93.717 24.9644C93.4682 25.24 93.3438 25.6055 93.3438 26.0611L92.804 25.7395C92.804 25.3376 92.8997 24.9778 93.0911 24.6601C93.2825 24.3423 93.5428 24.0935 93.872 23.9136C94.2012 23.7299 94.5744 23.638 94.9917 23.638C95.4089 23.638 95.7726 23.726 96.0826 23.9021C96.3927 24.0782 96.6319 24.3308 96.8004 24.6601C96.9688 24.9854 97.053 25.374 97.053 25.8257L97.0473 30H96.031Z" fill="#004680"></path><path d="M9 16V26M21 26V21C21 18.7909 19.2091 17 17 17C14.7909 17 13 18.7909 13 21V26V16M8 13H10M3 5H27C28.1046 5 29 5.89543 29 7V31C29 32.1046 28.1046 33 27 33H3C1.89543 33 1 32.1046 1 31V7C1 5.89543 1.89543 5 3 5Z" stroke="#848484"></path></svg>