<svg xmlns="http://www.w3.org/2000/svg" xmlns:xlink="http://www.w3.org/1999/xlink" id="Layer_1" x="0px" y="0px" viewBox="0 0 332 221" style="enable-background:new 0 0 332 221;" xml:space="preserve"><style type="text/css">	.st0{fill:#DD827D;}</style><path class="st0" d="M325.6,221.6c-1.4-4.3-2.2-7.3-3.4-10.1c-8.6-21-17.4-42-26.1-63c-1.3-3.1-1.7-5.1,1.9-7.7  c16.2-11.7,27.9-26.6,32.5-46.7c9.6-41.9-18.1-84.4-60.5-92.3c-42.8-8-83.8,21-89.9,63.7c-4,27.9,5.8,51.3,24.4,71.4  c22,23.8,48,42.8,75.4,59.8c12.7,7.9,26,14.7,39.1,21.9C320.5,219.6,322.4,220.2,325.6,221.6z"></path><path class="st0" d="M144.7,220.3c-10.2-25.4-20.3-50.9-30.1-75.4c7.3-6.6,14.6-12,20.4-18.7c20.3-23.2,24-56.3,10.3-83.9  c-13.7-27.5-42.6-44-73.5-41.9C18.9,3.8-14.2,58,6.3,106.9c8.5,20.3,23.4,35.3,39.3,49.4c24.1,21.3,50.4,39.5,78.4,55.3  c6.3,3.6,12.8,6.6,19.2,9.9C143.7,221.1,144.2,220.7,144.7,220.3z"></path><g></g><g></g><g></g><g></g><g></g><g></g><g></g><g></g><g></g><g></g><g></g><g></g><g></g><g></g><g></g></svg>