<svg xmlns="http://www.w3.org/2000/svg" width="137" height="37" viewBox="0 0 137 37" fill="none"><path d="M9 15.7935V25.7935M21 25.7935V20.7935C21 18.5843 19.2091 16.7935 17 16.7935C14.7909 16.7935 13 18.5843 13 20.7935V25.7935V15.7935M8 12.7935H10M3 4.79346H27C28.1046 4.79346 29 5.68889 29 6.79346V30.7935C29 31.898 28.1046 32.7935 27 32.7935H3C1.89543 32.7935 1 31.898 1 30.7935V6.79346C1 5.68889 1.89543 4.79346 3 4.79346Z" stroke="#848484"></path><path d="M38.8039 13.7935V5.52515H43.627V6.5472H39.8259V9.14828H42.938V10.1703H39.8259V13.7935H38.8039ZM47.1309 13.9657C46.5146 13.9657 45.9826 13.826 45.5347 13.5466C45.0907 13.2671 44.7481 12.8805 44.5069 12.3867C44.2657 11.8929 44.1452 11.3264 44.1452 10.6871C44.1452 10.0364 44.2677 9.46599 44.5126 8.97602C44.7576 8.48605 45.1041 8.10517 45.5519 7.83338C45.9998 7.55777 46.5261 7.41997 47.1309 7.41997C47.7511 7.41997 48.2851 7.55969 48.7329 7.83913C49.1808 8.11474 49.5234 8.49944 49.7607 8.99324C50.0019 9.48322 50.1225 10.0478 50.1225 10.6871C50.1225 11.334 50.0019 11.9044 49.7607 12.3982C49.5196 12.8882 49.175 13.2729 48.7272 13.5523C48.2793 13.8279 47.7472 13.9657 47.1309 13.9657ZM47.1309 12.9953C47.774 12.9953 48.2525 12.781 48.5664 12.3522C48.8803 11.9235 49.0372 11.3685 49.0372 10.6871C49.0372 9.98659 48.8784 9.42963 48.5607 9.01621C48.2429 8.59897 47.7664 8.39035 47.1309 8.39035C46.6984 8.39035 46.3424 8.48796 46.0629 8.68318C45.7835 8.87841 45.5749 9.14828 45.4371 9.49279C45.2993 9.8373 45.2304 10.2354 45.2304 10.6871C45.2304 11.3838 45.3911 11.9427 45.7127 12.3637C46.0342 12.7848 46.507 12.9953 47.1309 12.9953ZM51.5015 13.7935V5.35289H52.5235V13.7935H51.5015ZM54.3612 13.7935V5.35289H55.3833V13.7935H54.3612ZM59.7474 13.9657C59.1311 13.9657 58.599 13.826 58.1511 13.5466C57.7071 13.2671 57.3645 12.8805 57.1233 12.3867C56.8822 11.8929 56.7616 11.3264 56.7616 10.6871C56.7616 10.0364 56.8841 9.46599 57.1291 8.97602C57.3741 8.48605 57.7205 8.10517 58.1684 7.83338C58.6162 7.55777 59.1426 7.41997 59.7474 7.41997C60.3675 7.41997 60.9015 7.55969 61.3494 7.83913C61.7972 8.11474 62.1398 8.49944 62.3772 8.99324C62.6183 9.48322 62.7389 10.0478 62.7389 10.6871C62.7389 11.334 62.6183 11.9044 62.3772 12.3982C62.136 12.8882 61.7915 13.2729 61.3436 13.5523C60.8957 13.8279 60.3637 13.9657 59.7474 13.9657ZM59.7474 12.9953C60.3905 12.9953 60.869 12.781 61.1828 12.3522C61.4967 11.9235 61.6537 11.3685 61.6537 10.6871C61.6537 9.98659 61.4948 9.42963 61.1771 9.01621C60.8594 8.59897 60.3828 8.39035 59.7474 8.39035C59.3148 8.39035 58.9588 8.48796 58.6794 8.68318C58.3999 8.87841 58.1913 9.14828 58.0535 9.49279C57.9157 9.8373 57.8468 10.2354 57.8468 10.6871C57.8468 11.3838 58.0076 11.9427 58.3291 12.3637C58.6507 12.7848 59.1234 12.9953 59.7474 12.9953ZM65.0994 13.7935L63.2046 7.58648L64.2209 7.59223L65.6047 12.1283L67 7.59223H67.9015L69.291 12.1283L70.6805 7.59223H71.6911L69.7963 13.7935H68.9465L67.4479 9.07937L65.9492 13.7935H65.0994ZM77.6683 13.9657C77.052 13.9657 76.5199 13.826 76.0721 13.5466C75.628 13.2671 75.2854 12.8805 75.0443 12.3867C74.8031 11.8929 74.6825 11.3264 74.6825 10.6871C74.6825 10.0364 74.805 9.46599 75.05 8.97602C75.295 8.48605 75.6414 8.10517 76.0893 7.83338C76.5372 7.55777 77.0635 7.41997 77.6683 7.41997C78.2884 7.41997 78.8224 7.55969 79.2703 7.83913C79.7182 8.11474 80.0608 8.49944 80.2981 8.99324C80.5393 9.48322 80.6598 10.0478 80.6598 10.6871C80.6598 11.334 80.5393 11.9044 80.2981 12.3982C80.0569 12.8882 79.7124 13.2729 79.2646 13.5523C78.8167 13.8279 78.2846 13.9657 77.6683 13.9657ZM77.6683 12.9953C78.3114 12.9953 78.7899 12.781 79.1038 12.3522C79.4177 11.9235 79.5746 11.3685 79.5746 10.6871C79.5746 9.98659 79.4158 9.42963 79.098 9.01621C78.7803 8.59897 78.3038 8.39035 77.6683 8.39035C77.2358 8.39035 76.8798 8.48796 76.6003 8.68318C76.3209 8.87841 76.1123 9.14828 75.9745 9.49279C75.8367 9.8373 75.7678 10.2354 75.7678 10.6871C75.7678 11.3838 75.9285 11.9427 76.2501 12.3637C76.5716 12.7848 77.0444 12.9953 77.6683 12.9953ZM86.3395 13.7935V10.6871C86.3395 10.3923 86.3127 10.1091 86.2592 9.8373C86.2094 9.56552 86.1194 9.32245 85.9893 9.10808C85.863 8.88989 85.6907 8.71763 85.4725 8.59131C85.2582 8.46499 84.9864 8.40183 84.6572 8.40183C84.4007 8.40183 84.1672 8.44585 83.9567 8.53389C83.75 8.61811 83.572 8.74826 83.4227 8.92434C83.2734 9.10043 83.1566 9.32245 83.0724 9.5904C82.992 9.85453 82.9518 10.1665 82.9518 10.5263L82.28 10.3196C82.28 9.71864 82.3872 9.20378 82.6016 8.77505C82.8198 8.3425 83.1241 8.01138 83.5145 7.78171C83.9088 7.5482 84.372 7.43145 84.9041 7.43145C85.306 7.43145 85.6486 7.49461 85.9319 7.62094C86.2151 7.74726 86.4506 7.91569 86.6381 8.12622C86.8257 8.33293 86.9731 8.56643 87.0802 8.82673C87.1874 9.0832 87.2621 9.34541 87.3042 9.61337C87.3501 9.87749 87.3731 10.1282 87.3731 10.3656V13.7935H86.3395ZM81.9183 13.7935V7.59223H82.837V9.25163H82.9518V13.7935H81.9183ZM91.2797 13.7935V5.52515H92.3018V12.8231H96.1373V13.7935H91.2797ZM97.2235 6.49553V5.43902H98.2455V6.49553H97.2235ZM97.2235 13.7935V7.59223H98.2455V13.7935H97.2235ZM104.384 13.7935V10.6871C104.384 10.3923 104.357 10.1091 104.303 9.8373C104.254 9.56552 104.164 9.32245 104.034 9.10808C103.907 8.88989 103.735 8.71763 103.517 8.59131C103.302 8.46499 103.031 8.40183 102.701 8.40183C102.445 8.40183 102.212 8.44585 102.001 8.53389C101.794 8.61811 101.616 8.74826 101.467 8.92434C101.318 9.10043 101.201 9.32245 101.117 9.5904C101.036 9.85453 100.996 10.1665 100.996 10.5263L100.324 10.3196C100.324 9.71864 100.432 9.20378 100.646 8.77505C100.864 8.3425 101.168 8.01138 101.559 7.78171C101.953 7.5482 102.416 7.43145 102.948 7.43145C103.35 7.43145 103.693 7.49461 103.976 7.62094C104.259 7.74726 104.495 7.91569 104.682 8.12622C104.87 8.33293 105.017 8.56643 105.125 8.82673C105.232 9.0832 105.306 9.34541 105.348 9.61337C105.394 9.87749 105.417 10.1282 105.417 10.3656V13.7935H104.384ZM99.9626 13.7935V7.59223H100.881V9.25163H100.996V13.7935H99.9626ZM109.289 13.9657C108.711 13.9657 108.215 13.8222 107.802 13.5351C107.388 13.2442 107.068 12.8518 106.843 12.358C106.621 11.8642 106.51 11.3072 106.51 10.6871C106.51 10.067 106.621 9.51001 106.843 9.01621C107.068 8.52241 107.388 8.13388 107.802 7.85061C108.215 7.56352 108.709 7.41997 109.283 7.41997C109.869 7.41997 110.36 7.5616 110.759 7.84487C111.157 8.12813 111.457 8.51667 111.66 9.01047C111.867 9.50427 111.97 10.0631 111.97 10.6871C111.97 11.3034 111.867 11.8604 111.66 12.358C111.457 12.8518 111.157 13.2442 110.759 13.5351C110.36 13.8222 109.871 13.9657 109.289 13.9657ZM109.415 13.0298C109.832 13.0298 110.175 12.9303 110.443 12.7312C110.711 12.5283 110.908 12.2508 111.034 11.8986C111.164 11.5426 111.229 11.1388 111.229 10.6871C111.229 10.2277 111.164 9.8239 111.034 9.47556C110.908 9.12339 110.713 8.8497 110.449 8.65447C110.184 8.45542 109.849 8.3559 109.444 8.3559C109.023 8.3559 108.674 8.45925 108.399 8.66596C108.127 8.87267 107.924 9.1521 107.79 9.50427C107.66 9.85644 107.595 10.2507 107.595 10.6871C107.595 11.1273 107.662 11.5254 107.796 11.8814C107.93 12.2336 108.131 12.513 108.399 12.7197C108.67 12.9264 109.009 13.0298 109.415 13.0298ZM111.229 13.7935V9.22866H111.115V5.52515H112.142V13.7935H111.229ZM116.438 13.9657C115.83 13.9657 115.298 13.8317 114.842 13.5638C114.39 13.292 114.038 12.9149 113.786 12.4326C113.533 11.9465 113.407 11.38 113.407 10.733C113.407 10.0555 113.531 9.46982 113.78 8.97602C114.029 8.47839 114.375 8.0956 114.819 7.82764C115.267 7.55586 115.791 7.41997 116.392 7.41997C117.016 7.41997 117.546 7.56352 117.983 7.85061C118.423 8.1377 118.752 8.54729 118.97 9.07937C119.192 9.61145 119.288 10.245 119.258 10.9799H118.224V10.6125C118.213 9.8507 118.058 9.28225 117.759 8.90712C117.46 8.52815 117.016 8.33867 116.427 8.33867C115.795 8.33867 115.315 8.54155 114.986 8.94731C114.656 9.35307 114.492 9.93491 114.492 10.6928C114.492 11.424 114.656 11.9905 114.986 12.3924C115.315 12.7944 115.784 12.9953 116.392 12.9953C116.802 12.9953 117.158 12.9016 117.46 12.714C117.763 12.5264 118 12.2565 118.172 11.9044L119.154 12.2431C118.913 12.7905 118.549 13.2154 118.063 13.5178C117.581 13.8164 117.039 13.9657 116.438 13.9657ZM114.147 10.9799V10.1588H118.729V10.9799H114.147ZM122.97 13.9657C122.392 13.9657 121.897 13.8222 121.483 13.5351C121.07 13.2442 120.75 12.8518 120.524 12.358C120.302 11.8642 120.191 11.3072 120.191 10.6871C120.191 10.067 120.302 9.51001 120.524 9.01621C120.75 8.52241 121.07 8.13388 121.483 7.85061C121.897 7.56352 122.391 7.41997 122.965 7.41997C123.55 7.41997 124.042 7.5616 124.44 7.84487C124.839 8.12813 125.139 8.51667 125.342 9.01047C125.549 9.50427 125.652 10.0631 125.652 10.6871C125.652 11.3034 125.549 11.8604 125.342 12.358C125.139 12.8518 124.839 13.2442 124.44 13.5351C124.042 13.8222 123.552 13.9657 122.97 13.9657ZM123.097 13.0298C123.514 13.0298 123.857 12.9303 124.125 12.7312C124.393 12.5283 124.59 12.2508 124.716 11.8986C124.846 11.5426 124.911 11.1388 124.911 10.6871C124.911 10.2277 124.846 9.8239 124.716 9.47556C124.59 9.12339 124.394 8.8497 124.13 8.65447C123.866 8.45542 123.531 8.3559 123.126 8.3559C122.704 8.3559 122.356 8.45925 122.081 8.66596C121.809 8.87267 121.606 9.1521 121.472 9.50427C121.342 9.85644 121.277 10.2507 121.277 10.6871C121.277 11.1273 121.344 11.5254 121.478 11.8814C121.612 12.2336 121.813 12.513 122.081 12.7197C122.352 12.9264 122.691 13.0298 123.097 13.0298ZM124.911 13.7935V9.22866H124.796V5.52515H125.824V13.7935H124.911ZM127.548 13.7935V5.52515H128.57V13.7935H127.548ZM134.708 13.7935V10.6871C134.708 10.3923 134.681 10.1091 134.628 9.8373C134.578 9.56552 134.488 9.32245 134.358 9.10808C134.232 8.88989 134.059 8.71763 133.841 8.59131C133.627 8.46499 133.355 8.40183 133.026 8.40183C132.769 8.40183 132.536 8.44585 132.325 8.53389C132.119 8.61811 131.941 8.74826 131.791 8.92434C131.642 9.10043 131.525 9.32245 131.441 9.5904C131.361 9.85453 131.32 10.1665 131.32 10.5263L130.649 10.3196C130.649 9.71864 130.756 9.20378 130.97 8.77505C131.188 8.3425 131.493 8.01138 131.883 7.78171C132.277 7.5482 132.741 7.43145 133.273 7.43145C133.675 7.43145 134.017 7.49461 134.3 7.62094C134.584 7.74726 134.819 7.91569 135.007 8.12622C135.194 8.33293 135.342 8.56643 135.449 8.82673C135.556 9.0832 135.631 9.34541 135.673 9.61337C135.719 9.87749 135.742 10.1282 135.742 10.3656V13.7935H134.708ZM130.287 13.7935V7.59223H131.206V9.25163H131.32V13.7935H130.287Z" fill="#848484"></path><path d="M41.6518 30.9657C41.07 30.9657 40.58 30.8222 40.1819 30.5351C39.7838 30.2442 39.4814 29.8518 39.2747 29.358C39.0718 28.8604 38.9704 28.3034 38.9704 27.6871C38.9704 27.0631 39.0718 26.5043 39.2747 26.0105C39.4814 25.5167 39.7838 25.1281 40.1819 24.8449C40.5838 24.5616 41.0757 24.42 41.6576 24.42C42.2318 24.42 42.7256 24.5635 43.139 24.8506C43.5562 25.1339 43.8759 25.5224 44.0979 26.0162C44.3199 26.51 44.4309 27.067 44.4309 27.6871C44.4309 28.3072 44.3199 28.8642 44.0979 29.358C43.8759 29.8518 43.5562 30.2442 43.139 30.5351C42.7256 30.8222 42.2299 30.9657 41.6518 30.9657ZM38.7981 30.7935V22.5251H39.8259V26.2287H39.7111V30.7935H38.7981ZM41.5255 30.0298C41.9351 30.0298 42.2739 29.9264 42.5418 29.7197C42.8098 29.513 43.0107 29.2336 43.1447 28.8814C43.2787 28.5254 43.3457 28.1273 43.3457 27.6871C43.3457 27.2507 43.2787 26.8564 43.1447 26.5043C43.0146 26.1521 42.8117 25.8727 42.5361 25.666C42.2643 25.4592 41.9179 25.3559 41.4968 25.3559C41.0949 25.3559 40.7618 25.4554 40.4977 25.6545C40.2336 25.8497 40.0365 26.1234 39.9063 26.4756C39.7762 26.8239 39.7111 27.2277 39.7111 27.6871C39.7111 28.1388 39.7742 28.5426 39.9006 28.8986C40.0307 29.2508 40.2298 29.5283 40.4977 29.7312C40.7657 29.9303 41.1083 30.0298 41.5255 30.0298ZM50.1051 30.7935V27.6871C50.1051 27.3923 50.0783 27.1091 50.0248 26.8373C49.975 26.5655 49.885 26.3224 49.7549 26.1081C49.6286 25.8899 49.4563 25.7176 49.2381 25.5913C49.0238 25.465 48.752 25.4018 48.4228 25.4018C48.1663 25.4018 47.9328 25.4459 47.7223 25.5339C47.5156 25.6181 47.3376 25.7483 47.1883 25.9243C47.039 26.1004 46.9222 26.3224 46.838 26.5904C46.7576 26.8545 46.7174 27.1665 46.7174 27.5263L46.0456 27.3196C46.0456 26.7186 46.1528 26.2038 46.3672 25.7751C46.5854 25.3425 46.8897 25.0114 47.2801 24.7817C47.6744 24.5482 48.1376 24.4315 48.6697 24.4315C49.0716 24.4315 49.4142 24.4946 49.6975 24.6209C49.9807 24.7473 50.2162 24.9157 50.4037 25.1262C50.5913 25.3329 50.7387 25.5664 50.8458 25.8267C50.953 26.0832 51.0277 26.3454 51.0698 26.6134C51.1157 26.8775 51.1387 27.1282 51.1387 27.3656V30.7935H50.1051ZM45.6839 30.7935V24.5922H46.6026V26.2516H46.7174V30.7935H45.6839ZM54.9742 30.96C54.2354 30.96 53.6287 30.7992 53.154 30.4777C52.6832 30.1523 52.3941 29.6987 52.287 29.1168L53.332 28.9503C53.4162 29.2872 53.6095 29.5551 53.9119 29.7542C54.2143 29.9494 54.5895 30.047 55.0373 30.047C55.4622 30.047 55.7953 29.959 56.0364 29.7829C56.2776 29.6068 56.3982 29.3676 56.3982 29.0652C56.3982 28.8891 56.358 28.7474 56.2776 28.6403C56.1972 28.5292 56.0307 28.4259 55.778 28.3302C55.5292 28.2345 55.1522 28.1197 54.6469 27.9857C54.0995 27.8402 53.6688 27.689 53.355 27.5321C53.0411 27.3751 52.8171 27.1933 52.6832 26.9866C52.5492 26.7799 52.4822 26.5292 52.4822 26.2344C52.4822 25.8708 52.5817 25.553 52.7808 25.2813C52.9798 25.0056 53.2573 24.7932 53.6133 24.6439C53.9732 24.4946 54.3904 24.42 54.8651 24.42C55.3359 24.42 55.757 24.4946 56.1283 24.6439C56.4996 24.7932 56.7982 25.0056 57.024 25.2813C57.2537 25.553 57.3896 25.8708 57.4317 26.2344L56.3867 26.4239C56.3369 26.0909 56.1761 25.8286 55.9043 25.6372C55.6364 25.4459 55.29 25.3444 54.8651 25.3329C54.4631 25.3176 54.1358 25.3884 53.8832 25.5454C53.6344 25.7023 53.51 25.9148 53.51 26.1827C53.51 26.332 53.5559 26.4603 53.6478 26.5674C53.7435 26.6746 53.9177 26.7761 54.1703 26.8718C54.4268 26.9675 54.7981 27.0765 55.2842 27.199C55.8316 27.3368 56.2623 27.488 56.5761 27.6526C56.8939 27.8134 57.1197 28.0048 57.2537 28.2268C57.3877 28.445 57.4547 28.7149 57.4547 29.0364C57.4547 29.6336 57.2346 30.1044 56.7943 30.4489C56.3541 30.7896 55.7474 30.96 54.9742 30.96ZM58.6062 27.5952V26.7512H62.0513V27.5952H58.6062ZM65.2199 30.7935L62.9691 24.5922H64.0026L65.7424 29.4901L67.4765 24.5922H68.5158L66.2649 30.7935H65.2199ZM69.6692 23.4955V22.439H70.6912V23.4955H69.6692ZM69.6692 30.7935V24.5922H70.6912V30.7935H69.6692ZM75.1013 30.9657C74.4926 30.9657 73.9605 30.8317 73.505 30.5638C73.0533 30.292 72.7011 29.9149 72.4485 29.4326C72.1959 28.9465 72.0695 28.38 72.0695 27.733C72.0695 27.0555 72.1939 26.4698 72.4428 25.976C72.6916 25.4784 73.038 25.0956 73.482 24.8276C73.9299 24.5559 74.4543 24.42 75.0553 24.42C75.6793 24.42 76.2094 24.5635 76.6458 24.8506C77.086 25.1377 77.4152 25.5473 77.6334 26.0794C77.8554 26.6115 77.9511 27.245 77.9205 27.9799H76.887V27.6125C76.8755 26.8507 76.7205 26.2823 76.4219 25.9071C76.1233 25.5282 75.6793 25.3387 75.0898 25.3387C74.4582 25.3387 73.9778 25.5416 73.6486 25.9473C73.3194 26.3531 73.1548 26.9349 73.1548 27.6928C73.1548 28.424 73.3194 28.9905 73.6486 29.3924C73.9778 29.7944 74.4467 29.9953 75.0553 29.9953C75.4649 29.9953 75.8209 29.9016 76.1233 29.714C76.4257 29.5264 76.663 29.2565 76.8353 28.9044L77.8172 29.2431C77.576 29.7905 77.2123 30.2154 76.7262 30.5178C76.2439 30.8164 75.7022 30.9657 75.1013 30.9657ZM72.8102 27.9799V27.1588H77.3923V27.9799H72.8102ZM82.6612 30.7935C82.2938 30.8662 81.9301 30.8949 81.5703 30.8796C81.2143 30.8681 80.8966 30.7973 80.6171 30.6671C80.3377 30.5332 80.1252 30.3265 79.9798 30.047C79.8573 29.802 79.7903 29.5551 79.7788 29.3063C79.7712 29.0537 79.7673 28.7685 79.7673 28.4508V22.8697H80.7894V28.4048C80.7894 28.6575 80.7913 28.8738 80.7951 29.0537C80.8028 29.2336 80.843 29.3886 80.9157 29.5188C81.0535 29.7637 81.2717 29.9073 81.5703 29.9494C81.8727 29.9915 82.2363 29.98 82.6612 29.9149V30.7935ZM78.5099 25.4363V24.5922H82.6612V25.4363H78.5099ZM88.3357 30.7935V27.6871C88.3357 27.3923 88.3089 27.1091 88.2554 26.8373C88.2056 26.5655 88.1156 26.3224 87.9855 26.1081C87.8592 25.8899 87.6869 25.7176 87.4687 25.5913C87.2544 25.465 86.9826 25.4018 86.6534 25.4018C86.3969 25.4018 86.1634 25.4459 85.9529 25.5339C85.7462 25.6181 85.5682 25.7483 85.4189 25.9243C85.2696 26.1004 85.1528 26.3224 85.0686 26.5904C84.9882 26.8545 84.948 27.1665 84.948 27.5263L84.2762 27.3196C84.2762 26.7186 84.3834 26.2038 84.5978 25.7751C84.816 25.3425 85.1203 25.0114 85.5107 24.7817C85.905 24.5482 86.3682 24.4315 86.9003 24.4315C87.3022 24.4315 87.6448 24.4946 87.9281 24.6209C88.2113 24.7473 88.4468 24.9157 88.6343 25.1262C88.8219 25.3329 88.9693 25.5664 89.0764 25.8267C89.1836 26.0832 89.2583 26.3454 89.3004 26.6134C89.3463 26.8775 89.3693 27.1282 89.3693 27.3656V30.7935H88.3357ZM83.9145 30.7935V24.5922H84.8332V26.2516H84.948V30.7935H83.9145ZM92.6248 30.9657C92.1617 30.9657 91.7731 30.8815 91.4592 30.7131C91.1492 30.5408 90.9138 30.315 90.753 30.0355C90.596 29.7561 90.5176 29.4499 90.5176 29.1168C90.5176 28.7915 90.5788 28.5101 90.7013 28.2728C90.8276 28.0316 91.0037 27.8326 91.2296 27.6756C91.4554 27.5148 91.7253 27.3885 92.0392 27.2967C92.3339 27.2163 92.6631 27.1474 93.0268 27.0899C93.3943 27.0287 93.7656 26.9732 94.1407 26.9234C94.5158 26.8737 94.8661 26.8258 95.1915 26.7799L94.824 26.9923C94.8355 26.4411 94.7245 26.0334 94.491 25.7693C94.2613 25.5052 93.8632 25.3731 93.2966 25.3731C92.9215 25.3731 92.5923 25.4592 92.309 25.6315C92.0296 25.7999 91.8325 26.0755 91.7176 26.4583L90.7472 26.1655C90.8965 25.6219 91.1855 25.1951 91.6143 24.8851C92.043 24.575 92.6076 24.42 93.3081 24.42C93.8708 24.42 94.3531 24.5214 94.7551 24.7243C95.1608 24.9233 95.4518 25.2257 95.6278 25.6315C95.7159 25.8229 95.7714 26.0315 95.7944 26.2574C95.8173 26.4794 95.8288 26.7129 95.8288 26.9579V30.7935H94.9216V29.3063L95.134 29.4441C94.9005 29.9456 94.5733 30.3245 94.1522 30.581C93.7349 30.8375 93.2258 30.9657 92.6248 30.9657ZM92.7799 30.1102C93.1474 30.1102 93.4651 30.0451 93.733 29.9149C94.0048 29.781 94.223 29.6068 94.3876 29.3924C94.5522 29.1742 94.6594 28.9369 94.7091 28.6804C94.7666 28.489 94.7972 28.2766 94.801 28.0431C94.8087 27.8058 94.8125 27.6239 94.8125 27.4976L95.1685 27.6526C94.8355 27.6986 94.5082 27.7426 94.1866 27.7847C93.8651 27.8268 93.5608 27.8728 93.2737 27.9225C92.9866 27.9685 92.7282 28.024 92.4985 28.089C92.3301 28.1426 92.1712 28.2115 92.0219 28.2957C91.8765 28.38 91.7578 28.489 91.6659 28.623C91.5779 28.7532 91.5339 28.9159 91.5339 29.1111C91.5339 29.2795 91.576 29.4403 91.6602 29.5934C91.7482 29.7465 91.8822 29.8709 92.0621 29.9666C92.2459 30.0623 92.4851 30.1102 92.7799 30.1102ZM104.734 30.7935L104.74 26.8258C104.74 26.3626 104.616 26.0009 104.367 25.7406C104.122 25.4765 103.802 25.3444 103.408 25.3444C103.178 25.3444 102.96 25.398 102.754 25.5052C102.547 25.6085 102.378 25.7731 102.248 25.999C102.118 26.221 102.053 26.5062 102.053 26.8545L101.513 26.6363C101.506 26.1961 101.596 25.8114 101.783 25.4822C101.975 25.1492 102.235 24.8908 102.564 24.7071C102.893 24.5233 103.265 24.4315 103.678 24.4315C104.325 24.4315 104.834 24.6286 105.205 25.0229C105.577 25.4133 105.762 25.9397 105.762 26.6019L105.757 30.7935H104.734ZM97.316 30.7935V24.5922H98.2289V26.2516H98.3438V30.7935H97.316ZM101.031 30.7935L101.037 26.866C101.037 26.3913 100.914 26.02 100.669 25.7521C100.424 25.4803 100.099 25.3444 99.6931 25.3444C99.2912 25.3444 98.9658 25.4822 98.717 25.7578C98.4682 26.0334 98.3438 26.399 98.3438 26.8545L97.804 26.533C97.804 26.131 97.8997 25.7712 98.0911 25.4535C98.2825 25.1358 98.5428 24.887 98.872 24.7071C99.2012 24.5233 99.5744 24.4315 99.9917 24.4315C100.409 24.4315 100.773 24.5195 101.083 24.6956C101.393 24.8717 101.632 25.1243 101.8 25.4535C101.969 25.7789 102.053 26.1674 102.053 26.6191L102.047 30.7935H101.031Z" fill="#004680"></path></svg>